<?xml version="1.0" encoding="utf-8"?>
<!-- Generator: Adobe Illustrator 24.1.3, SVG Export Plug-In . SVG Version: 6.00 Build 0)  -->
<svg version="1.1" id="Layer_1" xmlns="http://www.w3.org/2000/svg" xmlns:xlink="http://www.w3.org/1999/xlink" x="0px" y="0px"
	 viewBox="0 0 420 420" style="enable-background:new 0 0 420 420;" xml:space="preserve">
<style type="text/css">
	.st0{fill:#407BFF;}
</style>
<g>
	<path class="st0" d="M292,276.6c15.5-17.5,24.9-39.9,24.9-64.4c0-55.7-48.4-100.9-108-100.9c-59.7,0-108,45.1-108,100.9
		c0,25.9,10.4,49.4,27.6,67.3h-0.1c0,0,0.2,0.2,0.4,0.4c1.5,1.6,3.2,3.1,4.8,4.6c0,0,27.5,22.8,60.9,18.8
		c53.2-6.4,56.6-37.5,56.6-37.5s-3.7,14.9-39.3,20.5c-35.6,5.7-58-19-58-19c-1.2-1.2-2.4-2.4-3.5-3.6c-0.2-0.2-0.3-0.3-0.3-0.3h0
		c-12.5-13.9-20.2-32.2-20.2-52.4c0-43.3,35.4-78.5,79-78.5c43.6,0,79,35.2,79,78.5c0,21.4-8.6,40.8-22.6,54.9l-0.7,0.3
		c0,0,0,0.2-0.1,0.4c-0.4,0.4-0.8,0.8-1.2,1.2c-2.5,2.7-5.9,6.4-9.2,10.5c-16.1,14.7-48.8,37.4-100.9,40.7c0,0,0.1,0,0.1,0.1
		c-0.1,0.6-3.4,20.8,4.6,33.4c0,0,49.4,9.3,101.2-38.8c1.5-1.4,3-2.9,4.5-4.5C274.1,300.5,285.6,285.5,292,276.6z"/>
	<path class="st0" d="M153.2,319c0,0,45.1,32.9,89.9,20.2c0,0-1.6,24.9-7.8,34.5c0,0-62.6-2.4-78.1-21.3
		C157.2,352.5,149.5,339.5,153.2,319z"/>
	<path class="st0" d="M177.6,369.5c0,0,37.2,10.8,53.4,5.6c0,0-5.6,18.4-31.2,17.4C174.1,391.5,177.6,369.5,177.6,369.5z"/>
	<path class="st0" d="M205.7,97.5c0,0,28.8-62.8,8.5-81.9C201.3,3.5,160.6,20,205.7,97.5z"/>
	<path class="st0" d="M276.5,120.2c0,0,60.8-38.1,54.9-64.4C327.6,39.1,283.8,32.3,276.5,120.2z"/>
	<path class="st0" d="M322.6,175.2c0,0,73.2-1,83.6-26.1C412.8,133.2,380,105.3,322.6,175.2z"/>
	<path class="st0" d="M329.2,244.9c0,0,62,36.3,85.3,20.6C429.3,255.4,418.1,215.4,329.2,244.9z"/>
	<path class="st0" d="M294.2,306.6c0,0,30.8,62,59.6,60.7C372,366.4,386,327.1,294.2,306.6z"/>
	<path class="st0" d="M143.5,120.2c0,0-60.8-38.1-54.9-64.4C92.4,39.1,136.2,32.3,143.5,120.2z"/>
	<path class="st0" d="M97.4,175.2c0,0-73.2-1-83.6-26.1C7.2,133.2,40,105.3,97.4,175.2z"/>
	<path class="st0" d="M90.8,244.9c0,0-62,36.3-85.3,20.6C-9.3,255.4,1.9,215.4,90.8,244.9z"/>
	<path class="st0" d="M125.8,306.6c0,0-30.8,62-59.6,60.7C48,366.4,34,327.1,125.8,306.6z"/>
</g>
</svg>
