<?xml version="1.0" encoding="utf-8"?>
<!-- Generator: Adobe Illustrator 24.1.3, SVG Export Plug-In . SVG Version: 6.00 Build 0)  -->
<svg version="1.1" id="Layer_1" xmlns="http://www.w3.org/2000/svg" xmlns:xlink="http://www.w3.org/1999/xlink" x="0px" y="0px"
	 viewBox="0 0 720 720" style="enable-background:new 0 0 720 720;" xml:space="preserve">
<style type="text/css">
	.st0{fill:#2162D6;}
	.st1{fill:#E8E8E8;}
	.st2{opacity:0.3;}
	.st3{fill:#FFFFFF;}
	.st4{fill:#FFCC9A;}
	.st5{fill:#FF8135;}
	.st6{fill:#E1501B;}
	.st7{fill:#673A1D;}
	.st8{fill:#FFA17D;}
	.st9{fill:#FF7D6F;}
	.st10{fill:#0D0000;}
	.st11{fill:#593219;}
	.st12{fill:#FFB100;}
	.st13{fill:#DEDEDE;}
	.st14{fill:#ABCDFF;}
	.st15{fill:#1A6DFF;}
	.st16{fill:#407BFF;}
	.st17{fill:#734120;}
	.st18{fill:#9DB837;}
	.st19{fill:#FFFFFD;}
	.st20{fill:#EF4418;}
	.st21{fill:#FFB701;}
	.st22{clip-path:url(#SVGID_2_);}
	.st23{fill:#72A103;}
	.st24{clip-path:url(#SVGID_4_);}
	.st25{fill:#FF4B00;}
	.st26{fill:#FEFFFF;}
</style>
<path class="st0" d="M12,586.39c0,0,177.68-36.75,348.98,3.53C360.98,589.92,152.24,641.87,12,586.39z"/>
<path class="st0" d="M703,586.39c0,0-177.68-36.75-348.98,3.53C354.02,589.92,562.76,641.87,703,586.39z"/>
<path class="st1" d="M648.84,582.79H437.56c-10.54,0-19.08-8.54-19.08-19.08V123.46c0-10.54,8.54-19.08,19.08-19.08h211.28
	c10.54,0,19.08,8.54,19.08,19.08v440.25C667.93,574.25,659.38,582.79,648.84,582.79z"/>
<g class="st2">
	<rect x="415.91" y="173.98" class="st3" width="252.02" height="217.94"/>
</g>
<g class="st2">
	<rect x="415.91" y="417.22" class="st3" width="252.02" height="74.38"/>
</g>
<g>
	<path class="st1" d="M276.35,582.79H65.07c-10.54,0-19.08-8.54-19.08-19.08V123.46c0-10.54,8.54-19.08,19.08-19.08h211.28
		c10.54,0,19.08,8.54,19.08,19.08v440.25C295.44,574.25,286.89,582.79,276.35,582.79z"/>
	<g class="st2">
		<rect x="45.98" y="164.74" class="st3" width="249.45" height="172.89"/>
	</g>
	<g class="st2">
		<rect x="45.98" y="376.76" class="st3" width="249.45" height="64.01"/>
	</g>
	<path class="st4" d="M301.68,582.79H90.4c-10.54,0-19.08-8.54-19.08-19.08V123.46c0-10.54,8.54-19.08,19.08-19.08h211.28
		c10.54,0,19.08,8.54,19.08,19.08v440.25C320.77,574.25,312.22,582.79,301.68,582.79z"/>
	<g>
		<path class="st5" d="M219.87,333.33l-48.11,4.36L71.31,388.62v162.68c0,17.4,12.65,31.5,28.25,31.5h192.94
			c15.6,0,28.25-14.1,28.25-31.5V401.58L219.87,333.33z"/>
		<path class="st6" d="M277.94,372.61c0,0-20.37,177.03-26.18,210.18h6.46c0,0,19.23-169.43,26.64-205.49L277.94,372.61z"/>
		<path class="st6" d="M101.31,373.41c0,0,30.23,176.24,36.05,209.38h-6.46c0,0-28.78-169.97-36.2-206.03L101.31,373.41z"/>
		<polygon class="st3" points="129.28,359.23 153.58,582.79 240.29,582.79 251.48,354.71 219.87,333.33 163.93,341.65 		"/>
		<path class="st1" d="M193.54,582.79c0.36-2.64,3.35-110.38,2.5-164.83c0,0,10.36,61.79,7.77,165.07L193.54,582.79z"/>
		<path class="st1" d="M177.75,313.32c0,0-24.56,17.29-29.9,30.26c-4.22,10.25,17.44,74.38,17.44,74.38l29.04-19.49l37.72,14.74
			c0,0,0.91-71.59-9.05-80.11C213.05,324.58,177.75,313.32,177.75,313.32z"/>
		<path class="st7" d="M275.22,226.43c0.15-6.95-11.9-21.98-11.9-21.98s16.09,3.85,15.11-2.21c-0.99-6.06-18.9-19.11-18.9-19.11
			s11.51,1.54,8-4.51c-3.51-6.05-28.53-23.63-43.7-23.08s-33.93,14.29-33.93,14.29s-20.56,1.91-33.71,10.85
			c-7.27,4.95-17.38,117.05,7.39,122.41C198.67,310.68,274.48,260.38,275.22,226.43z"/>
		<path class="st8" d="M164.91,272.31l-1.33,94.52c0,0,9.22,26.04,29.96,26.1c14.86,0.05,21.48-24.16,22.96-28.34l-3.03-40.08
			L164.91,272.31z"/>
		<path class="st9" d="M171.37,303.09c0,0,2.93,24.32,4.04,30.91c1.11,6.59,40.3,20.16,40.3,20.16l-2.24-29.64L171.37,303.09z"/>
		<path class="st8" d="M247.61,336.77c7.36-1.83,12.23-32.93,12.4-36.17c1.01-19.88,3.31-81.23,3.31-81.23
			c-23.03-64.62-86.15-24.59-93.13-17.43c-4.2,4.3-7.84,85.49,2.88,108.56C178.8,322.84,226.83,341.94,247.61,336.77z"/>
		<path class="st8" d="M174.95,264.6c0,0-20.4-29.23-29.21-11.86c-8.8,17.37,7.66,33.65,25.62,36.13L174.95,264.6z"/>
		<g>
			<path class="st7" d="M259.11,249.89c0.18-1.3-5.31-7.68-11.18-8.06c-5.89-0.46-8.14,5.36-7.25,6.74c0.89,1.6,4.02-0.91,8.92-0.45
				C254.44,248.36,259.05,251.42,259.11,249.89z"/>
		</g>
		<g>
			<path class="st7" d="M205.16,248.5c-0.15-1.31,5.52-7.49,11.4-7.67c5.9-0.26,7.99,5.64,7.06,6.99c-0.93,1.57-3.99-1.05-8.9-0.76
				C209.86,247.13,205.17,250.03,205.16,248.5z"/>
		</g>
		<path class="st9" d="M235.93,260.5c0,0,3.04,20.1,9.54,24.66c0,0-2.93,7.24-10.91,5.48c0,0,5.05-2.89,6.86-5.35
			C241.42,285.3,233.29,275.57,235.93,260.5z"/>
		<path class="st9" d="M211.61,272.35c-0.44,2.97-5.65,4.49-11.64,3.38c-5.99-1.11-10.49-4.41-10.04-7.39
			c0.44-2.97,5.66-4.49,11.64-3.38C207.56,266.07,212.05,269.38,211.61,272.35z"/>
		<path class="st9" d="M267.42,268.55c0.7,2.91-2.27,6.32-6.63,7.62c-4.36,1.3-8.46-0.01-9.16-2.92c-0.7-2.91,2.27-6.33,6.63-7.62
			C262.63,264.33,266.73,265.64,267.42,268.55z"/>
		<path class="st10" d="M210.9,262.01c0,0,4.19-7.42,8.26-7.56c4.07-0.14,8.75,7.56,8.75,7.56S220.02,257.2,210.9,262.01z"/>
		<path class="st10" d="M240.5,262.01c0,0,4.19-7.42,8.26-7.56c4.07-0.14,8.75,7.56,8.75,7.56S249.62,257.2,240.5,262.01z"/>
		<g>
			<path class="st3" d="M216.16,306.41l31.94-5.58c0,0-1.25,21.72-12.2,21.5C222.06,322.03,216.16,306.41,216.16,306.41z"/>
		</g>
		<path class="st9" d="M167.89,275.27c1.88-1.83-4.31-17.31-9.37-14.56c-5.05,2.75-4.44,10.17,1.36,10.72
			C159.88,271.42,161.24,281.73,167.89,275.27z"/>
		<path class="st7" d="M165.74,254.01c4.41,4.06,19.69,0.97,21.68-12.21c1.13-7.51-4.64-21.07-7.39-27.25
			c8.38,6.94,31.4,14.36,34.64,12.09c3.99-2.79,4.73-7.42,1.12-12.3c7,2.99,15.81,5.67,23.16,7.27c1.72,0.38,3.57,0.7,5.17-0.1
			c1.6-0.8,2.67-3.19,1.65-4.78c5.13,6.8,14.95,12.15,21.64,7.31c5.87-4.25-17.62-52.84-55.13-49.55
			C148.94,180.03,158.51,228.31,165.74,254.01z"/>
		<path class="st7" d="M189.76,173.91c0,0-11.69-8.52-9.11-13.33c1.3-2.41,8.4,4.68,8.4,4.14s3.07-7.75,5.01-7.93
			C196,156.61,200.42,175.35,189.76,173.91z"/>
		<path class="st11" d="M215.88,212.4c-0.62-1.43-1.56-1.76-2.77-2.61c-1.69-1.19-3.34-2.46-4.91-3.84
			c-2.06-1.81-4.35-5.52-6.94-6.13c-0.25-0.06-0.42,0.16-0.39,0.43c0.43,3.21,4.54,6.02,6.7,7.9c2,1.74,5.25,5.28,7.93,4.97
			C215.84,213.08,216.02,212.75,215.88,212.4z"/>
		<path class="st11" d="M228.52,205.19c-1.66-0.65-3.28-1.33-4.83-2.26c-1.16-0.7-2.38-1.86-3.74-1.83
			c-0.34,0.01-0.63,0.38-0.52,0.76c0.45,1.62,2.15,2.55,3.41,3.32c1.61,0.98,3.32,1.83,5.08,2.41
			C229.32,208.06,229.87,205.71,228.52,205.19z"/>
		<path class="st11" d="M253.2,193.31c-3.11-1.3-6.23-2.63-9.09-4.53c-2.39-1.59-4.53-3.92-7.26-4.7c-0.74-0.21-1.25,0.79-0.73,1.4
			c4.37,5.18,10.52,8.22,16.38,10.67C254.09,196.81,254.77,193.97,253.2,193.31z"/>
		<path class="st11" d="M252.82,182.17c-0.8-0.44-1.72-0.52-2.58-0.75c-0.86-0.23-1.69-0.55-2.57-0.68
			c-0.98-0.15-1.03,1.33-0.44,1.83c0.74,0.63,1.7,0.99,2.58,1.29c0.9,0.31,1.83,0.58,2.76,0.42
			C253.45,184.14,253.58,182.59,252.82,182.17z"/>
	</g>
	<g>
		<path class="st3" d="M301.68,109.38c7.77,0,14.08,6.32,14.08,14.08v440.25c0,7.77-6.32,14.08-14.08,14.08H90.4
			c-7.77,0-14.08-6.32-14.08-14.08V123.46c0-7.77,6.32-14.08,14.08-14.08H301.68 M301.68,104.38H90.4
			c-10.54,0-19.08,8.54-19.08,19.08v440.25c0,10.54,8.54,19.08,19.08,19.08h211.28c10.54,0,19.08-8.54,19.08-19.08V123.46
			C320.77,112.92,312.22,104.38,301.68,104.38L301.68,104.38z"/>
	</g>
	<g>
		<path class="st3" d="M244.45,130.92h-96.81c-6.57,0-11.9-5.94-11.9-13.27l0,0c0-7.33,5.33-13.27,11.9-13.27h96.81
			c6.57,0,11.9,5.94,11.9,13.27l0,0C256.35,124.97,251.02,130.92,244.45,130.92z"/>
	</g>
	<ellipse class="st12" cx="215.09" cy="117.65" rx="4.56" ry="5.09"/>
	<ellipse class="st13" cx="236.89" cy="117.65" rx="4.56" ry="5.09"/>
</g>
<g>
	<path class="st14" d="M623.52,582.79H412.23c-10.54,0-19.08-8.54-19.08-19.08V123.46c0-10.54,8.54-19.08,19.08-19.08h211.28
		c10.54,0,19.08,8.54,19.08,19.08v440.25C642.6,574.25,634.06,582.79,623.52,582.79z"/>
	<g>
		<path class="st7" d="M440.91,417.97c0,0,5.82-114.88,27.49-220.51c10.71-52.17,71.3,3.84,71.3,3.84s18.58-8.72,27.92-9.56
			c9.34-0.85,42.39,76.32,37.22,215.5C604.85,407.23,499.51,418.07,440.91,417.97z"/>
		<path class="st11" d="M571.94,304.15c-0.22-0.82-1.46-0.71-1.39,0.21c1.95,27.63,3.87,53.79-1.2,81.27
			c-0.43,2.36,2.85,3.35,3.23,0.99C576.9,360.01,578.92,330.46,571.94,304.15z"/>
		<path class="st11" d="M587.69,341.54c-0.2-1.12-1.81-0.86-1.78,0.27c0.22,8.38,0.83,16.7,0.62,25.1
			c-0.21,8.36-1.7,16.66-1.71,24.99c0,0.93,1.13,1.03,1.39,0.21C591.01,377.1,590.49,356.94,587.69,341.54z"/>
		<path class="st11" d="M594.92,317.4c-0.17-1.35-0.3-2.72-0.44-4.08c-0.1-1.04-1.62-1.52-1.81-0.27c-0.35,2.36-0.67,5.96,0.71,7.99
			c0.44,0.65,1.54,0.73,1.72-0.25C595.32,319.62,595.06,318.55,594.92,317.4z"/>
		<path class="st11" d="M470.02,320.54c-2.34,20.41-4.87,40.8-7.25,61.19c-0.13,1.14,1.54,1.36,1.78,0.27
			c4.33-19.63,6.67-41.27,6.98-61.46C471.55,319.42,470.14,319.49,470.02,320.54z"/>
		<path class="st11" d="M482.17,347.71c-0.14-0.88-1.36-0.65-1.37,0.21c-0.05,4.97,0.1,9.92-0.28,14.87
			c-0.37,4.91-1.35,9.75-1.55,14.68c-0.02,0.51,0.69,0.75,0.89,0.27C483.49,368.9,483.68,357.14,482.17,347.71z"/>
		<path class="st11" d="M496.83,361.23c-0.08-2.09,0.07-4.36-0.6-6.33c-0.24-0.71-1.16-0.79-1.37,0c-0.55,2.02-0.26,4.24-0.22,6.33
			c0.05,2.12-0.02,4.31,0.49,6.36c0.21,0.83,1.4,0.9,1.57,0C497.11,365.51,496.92,363.35,496.83,361.23z"/>
		<path class="st15" d="M434.34,583.03l30.49-82.53l17.03-134.85c0,0-26.24,4.96-30.77,8.92c-4.46,3.91-56.29,187.2-56.29,187.2
			S399.9,588.08,434.34,583.03z"/>
		<polygon class="st16" points="510.93,361.25 489.93,582.79 533.14,582.79 554.24,365.74 		"/>
		<path class="st16" d="M510.93,361.25l-20.99,221.54h-32.21l5.39-95.86c0,0-22.51-12.67-22.2-38.16
			c0.11-8.79,40.95-83.13,40.95-83.13L510.93,361.25z"/>
		<path class="st16" d="M554.24,365.74c0,0,46.9,10.98,56.96,20.72c13.7,13.25,15.26,140.19,15.39,182.61
			c0.02,7.58-5.48,13.73-12.28,13.73h-81.16L554.24,365.74z"/>
		<path class="st15" d="M565.81,582.79c0,0,9.37-146.26,24.77-175.56c0,0-9.05,116.23-12.06,175.8L565.81,582.79z"/>
		<path class="st8" d="M554.92,283.03l-0.59,82.71c0,0-36.35-0.8-37.26-4.49l5.29-33.81L554.92,283.03z"/>
		<path class="st9" d="M550.23,309.78c0,0-2.29,21.19-3.12,26.93c-0.83,5.74-28.79,16.6-28.79,16.6l4.05-25.87L550.23,309.78z"/>
		<path class="st8" d="M495.67,339.98c-24.42-2.35-20.78-89.17-20.78-89.17c21.48-55.93,69.22-21.15,75.19-14.71
			c3.58,3.87,6.78,60.22-3.08,80.13C541.73,326.86,514.23,341.77,495.67,339.98z"/>
		<path class="st8" d="M546.3,276.03c0,0,18.45-25.05,25.79-9.63c7.34,15.42-7.4,29.24-23.15,30.94L546.3,276.03z"/>
		<g>
			<path class="st17" d="M472.84,257.57c-0.16-0.72,4.72-4.24,9.94-4.45c5.24-0.26,7.24,2.96,6.44,3.72
				c-0.79,0.88-3.57-0.5-7.93-0.25C476.99,256.73,472.9,258.41,472.84,257.57z"/>
		</g>
		<g>
			<path class="st17" d="M520.81,256.81c0.13-0.72-4.91-4.13-10.13-4.23c-5.25-0.14-7.1,3.11-6.27,3.85
				c0.83,0.86,3.55-0.58,7.91-0.42C516.63,256.05,520.8,257.65,520.81,256.81z"/>
		</g>
		<path class="st9" d="M515.66,285.87c0.33,2.61,4.85,4.07,10.11,3.26c5.26-0.81,9.26-3.59,8.94-6.2
			c-0.32-2.61-4.85-4.07-10.11-3.26C519.34,280.48,515.34,283.25,515.66,285.87z"/>
		<path class="st9" d="M469.34,283.07c-0.42,2.6,2.83,5.42,7.26,6.31c4.43,0.89,8.36-0.5,8.78-3.09c0.42-2.6-2.83-5.42-7.26-6.31
			C473.69,279.09,469.76,280.48,469.34,283.07z"/>
		<path class="st9" d="M552.25,285.54c-1.61-1.65,4.13-15.03,8.49-12.5c4.36,2.53,3.67,9.01-1.41,9.34
			C559.34,282.38,557.94,291.36,552.25,285.54z"/>
		<path class="st10" d="M485.78,271.06c0,3.13-1.05,5.67-2.33,5.67s-2.33-2.54-2.33-5.67c0-3.13,1.05-5.67,2.33-5.67
			S485.78,267.93,485.78,271.06z"/>
		<path class="st10" d="M510.75,271.06c0,3.13-1.05,5.67-2.33,5.67c-1.29,0-2.33-2.54-2.33-5.67c0-3.13,1.05-5.67,2.33-5.67
			C509.71,265.39,510.75,267.93,510.75,271.06z"/>
		<path class="st9" d="M497.26,289.78c0,0-7.77,1.92-8.03,5.4c-0.4,5.4,6.88,5.4,6.88,5.4s-3.55-3.26-3.41-5.4
			C492.86,292.7,497.26,289.78,497.26,289.78z"/>
		<path class="st19" d="M503.79,362.33l2.72-18.64l54.61,2.41l1.21,22.45c0,0-18.85,27.57-40.25,22.82
			C515.37,389.89,506.12,373.51,503.79,362.33z"/>
		<path class="st15" d="M463.11,486.93c0,0,15.77,9.47,28.84-2.46c0,0,23.93,13.06,44.61,10.66c0,0-27.87,9.49-44.11-2.4
			C492.45,492.73,473.39,504.08,463.11,486.93z"/>
		<path class="st7" d="M468.35,248.14c-1.2,5.3,8.75,4.96,13.62,5.61c12.7,1.69,25.95-2.68,35.78-11.81
			c4.43-4.12,8.25-9.19,13.34-12.23c0,0-3.12,61.41,29.07,33.24c0,0,2.81-48.42-38.08-49.83S472.3,230.76,468.35,248.14z"/>
		<path class="st9" d="M508.62,314.58c0,0-11.11,4.97-18.69,1.5C489.93,316.08,496.48,327.6,508.62,314.58z"/>
		<path class="st9" d="M501.77,325.03c0,0-2.98,1.89-5.57-0.06c0,0,1.99,3.21,3.12,3.15C500.45,328.06,501.77,325.03,501.77,325.03z
			"/>
		<path class="st1" d="M530.3,346.29c0,0-5.37,26.95-3.43,43.23C526.87,389.52,531.79,373.23,530.3,346.29z"/>
		<path class="st1" d="M516.21,345.57c0,0-5.57,16.17-5.49,28.1C510.71,373.67,518.02,354.05,516.21,345.57z"/>
		<path class="st1" d="M541.94,348.59c0,0,5.04,19.47,4,33.43C545.94,382.02,539.2,358.35,541.94,348.59z"/>
		<path class="st1" d="M553.62,349.43c0,0,4.84,12.08,4.18,20.63C557.8,370.06,551.37,355.36,553.62,349.43z"/>
		<path class="st11" d="M538.5,214.07c-0.21-0.44-0.72-0.43-1.02-0.15c-1.57,1.49-1.75,4.9-2.59,6.98c-1.04,2.57-2.32,4.96-3.73,7.3
			c-0.47,0.78,0.54,1.54,1.12,0.96c2.16-2.18,3.84-4.8,5.01-7.77C538.12,219.27,539.54,216.29,538.5,214.07z"/>
	</g>
	<g>
		<path class="st3" d="M623.52,109.38c7.77,0,14.08,6.32,14.08,14.08v440.25c0,7.77-6.32,14.08-14.08,14.08H412.23
			c-7.77,0-14.08-6.32-14.08-14.08V123.46c0-7.77,6.32-14.08,14.08-14.08H623.52 M623.52,104.38H412.23
			c-10.54,0-19.08,8.54-19.08,19.08v440.25c0,10.54,8.54,19.08,19.08,19.08h211.28c10.54,0,19.08-8.54,19.08-19.08V123.46
			C642.6,112.92,634.06,104.38,623.52,104.38L623.52,104.38z"/>
	</g>
	<g>
		<path class="st3" d="M566.28,130.92h-96.81c-6.57,0-11.9-5.94-11.9-13.27l0,0c0-7.33,5.33-13.27,11.9-13.27h96.81
			c6.57,0,11.9,5.94,11.9,13.27l0,0C578.18,124.97,572.85,130.92,566.28,130.92z"/>
	</g>
	<ellipse class="st13" cx="536.92" cy="117.65" rx="4.56" ry="5.09"/>
	<ellipse class="st20" cx="558.72" cy="117.65" rx="4.56" ry="5.09"/>
</g>
<g>
	<polygon class="st15" points="443.42,192.48 439.82,247.84 339.86,247.84 337.86,192.48 	"/>
	<polygon class="st16" points="393.67,238.69 427.48,269.22 418.43,238.69 	"/>
	<polyline class="st19" points="356.96,207.4 425.6,206.03 425.6,212.54 356.96,214.14 356.96,209.65 	"/>
	<polygon class="st19" points="358.39,225.13 400.07,225.97 398.66,233.18 358.39,232.8 	"/>
</g>
<g>
	<polygon class="st21" points="279.71,280.24 283.31,335.6 383.26,335.6 385.26,280.24 	"/>
	<polygon class="st19" points="295.44,298.94 326.64,297.14 326.64,303.63 295.44,304.71 	"/>
	<polygon class="st19" points="335.4,296.78 372.34,293.9 372.34,300.39 335.4,302.55 	"/>
	<polygon class="st19" points="296.81,318.76 331.84,316.73 330.06,323.8 296.81,325.66 	"/>
	<polygon class="st19" points="342.24,315.67 353.87,315.18 353.87,324.13 342.24,324.13 	"/>
	<polygon class="st21" points="329.45,326.45 295.65,356.98 304.7,326.45 	"/>
</g>
<g>
	<polygon class="st21" points="276.53,88 283.98,143.36 376.05,143.36 382.09,88 	"/>
	<polygon class="st21" points="326.28,134.21 292.47,164.74 301.52,134.21 	"/>
	<polygon class="st19" points="297,104.69 365.82,101.81 365.82,108.29 297,110.46 	"/>
	<polygon class="st19" points="298.61,124.51 339.97,122.47 337.86,129.55 298.61,131.41 	"/>
	<polygon class="st19" points="347.4,122.47 358.39,122.47 356.96,131.07 347.4,131.07 	"/>
</g>
<g>
	<polygon class="st15" points="421.77,398.69 414.33,454.04 322.25,454.04 316.22,398.69 	"/>
	<polygon class="st16" points="416.19,418.31 433.18,373.67 404.87,401.54 	"/>
	<polygon class="st19" points="401.31,415.38 332.48,412.5 332.48,418.98 401.31,421.14 	"/>
	<polygon class="st19" points="399.69,435.19 358.33,433.16 360.44,440.23 399.69,442.09 	"/>
	<polygon class="st19" points="350.9,433.16 339.92,433.16 341.35,441.75 350.9,441.75 	"/>
</g>
<g>
	<ellipse class="st3" cx="144.49" cy="501.44" rx="43.38" ry="48.36"/>
	<ellipse class="st14" cx="144.49" cy="501.44" rx="37.4" ry="41.7"/>
	<g>
		<defs>
			<ellipse id="SVGID_1_" cx="144.49" cy="501.44" rx="37.4" ry="41.7"/>
		</defs>
		<clipPath id="SVGID_2_">
			<use xlink:href="#SVGID_1_"  style="overflow:visible;"/>
		</clipPath>
		<g class="st22">
			<g>
				<path class="st7" d="M169.22,539.49c0,0-1.64-32.43-7.76-62.25c-3.02-14.73-20.13,1.08-20.13,1.08s-5.24-2.46-7.88-2.7
					c-2.64-0.24-11.97,21.54-10.51,60.84C122.94,536.46,152.68,539.52,169.22,539.49z"/>
				<path class="st11" d="M132.23,507.36c0.06-0.23,0.41-0.2,0.39,0.06c-0.55,7.8-1.09,15.18,0.34,22.94
					c0.12,0.67-0.8,0.94-0.91,0.28C130.83,523.13,130.26,514.78,132.23,507.36z"/>
				<path class="st11" d="M127.79,517.91c0.06-0.32,0.51-0.24,0.5,0.08c-0.06,2.37-0.23,4.72-0.17,7.09
					c0.06,2.36,0.48,4.7,0.48,7.05c0,0.26-0.32,0.29-0.39,0.06C126.85,527.95,126.99,522.26,127.79,517.91z"/>
				<path class="st11" d="M125.75,511.1c0.05-0.38,0.08-0.77,0.12-1.15c0.03-0.29,0.46-0.43,0.51-0.08c0.1,0.66,0.19,1.68-0.2,2.25
					c-0.12,0.18-0.44,0.21-0.49-0.07C125.63,511.72,125.7,511.42,125.75,511.1z"/>
				<path class="st11" d="M161.01,511.98c0.66,5.76,1.37,11.52,2.05,17.28c0.04,0.32-0.44,0.38-0.5,0.08
					c-1.22-5.54-1.88-11.65-1.97-17.35C160.57,511.67,160.97,511.69,161.01,511.98z"/>
				<path class="st11" d="M157.58,519.65c0.04-0.25,0.38-0.18,0.39,0.06c0.02,1.4-0.03,2.8,0.08,4.2c0.11,1.39,0.38,2.75,0.44,4.14
					c0.01,0.14-0.19,0.21-0.25,0.08C157.2,525.64,157.15,522.32,157.58,519.65z"/>
				<path class="st11" d="M153.44,523.47c0.02-0.59-0.02-1.23,0.17-1.79c0.07-0.2,0.33-0.22,0.39,0c0.15,0.57,0.07,1.2,0.06,1.79
					c-0.01,0.6,0.01,1.22-0.14,1.8c-0.06,0.23-0.4,0.26-0.44,0C153.36,524.68,153.41,524.07,153.44,523.47z"/>
				<path class="st15" d="M182.71,580.27c0,0-15.1-51.93-16.36-53.03c-1.28-1.12-8.69-2.52-8.69-2.52l4.81,38.07l8.61,23.3h11.63
					V580.27z"/>
				<polygon class="st16" points="149.46,523.48 155.38,586.02 143.18,586.02 137.23,524.74 				"/>
				<path class="st16" d="M149.46,523.48l5.93,62.54h9.09l-1.52-27.06c0,0,6.36-3.58,6.27-10.77c-0.03-2.48-11.56-23.47-11.56-23.47
					L149.46,523.48z"/>
				<path class="st16" d="M137.23,524.74c0,0-13.24,3.1-16.08,5.85c-4.65,4.5-4.34,55.43-4.34,55.43h26.38L137.23,524.74z"/>
				<path class="st23" d="M133.96,586.02c0,0-2.65-41.29-6.99-49.56c0,0,2.56,32.81,3.41,49.63L133.96,586.02z"/>
				<path class="st8" d="M137.04,501.39l0.17,23.35c0,0,10.26-0.23,10.52-1.27l-1.49-9.54L137.04,501.39z"/>
				<path class="st9" d="M138.36,508.95c0,0,0.65,5.98,0.88,7.6c0.23,1.62,8.13,4.69,8.13,4.69l-1.14-7.3L138.36,508.95z"/>
				<path class="st8" d="M153.77,517.47c6.89-0.66,5.87-25.17,5.87-25.17c-6.06-15.79-19.54-5.97-21.23-4.15
					c-1.01,1.09-1.91,17,0.87,22.62C140.76,513.77,148.52,517.98,153.77,517.47z"/>
				<path class="st8" d="M139.47,499.42c0,0-5.21-7.07-7.28-2.72c-2.07,4.35,2.09,8.25,6.54,8.73L139.47,499.42z"/>
				<g>
					<path class="st17" d="M160.21,494.21c0.05-0.2-1.33-1.2-2.81-1.26c-1.48-0.07-2.04,0.84-1.82,1.05
						c0.22,0.25,1.01-0.14,2.24-0.07C159.04,493.97,160.19,494.44,160.21,494.21z"/>
				</g>
				<g>
					<path class="st17" d="M146.67,493.99c-0.04-0.2,1.39-1.17,2.86-1.19c1.48-0.04,2,0.88,1.77,1.09c-0.23,0.24-1-0.16-2.23-0.12
						C147.85,493.78,146.67,494.23,146.67,493.99z"/>
				</g>
				<path class="st9" d="M148.12,502.19c-0.09,0.74-1.37,1.15-2.86,0.92c-1.49-0.23-2.61-1.01-2.52-1.75
					c0.09-0.74,1.37-1.15,2.86-0.92C147.08,500.67,148.21,501.46,148.12,502.19z"/>
				<path class="st9" d="M161.2,501.41c0.12,0.73-0.8,1.53-2.05,1.78c-1.25,0.25-2.36-0.14-2.48-0.87c-0.12-0.73,0.8-1.53,2.05-1.78
					C159.97,500.28,161.08,500.67,161.2,501.41z"/>
				<path class="st9" d="M137.79,502.1c0.45-0.46-1.17-4.24-2.4-3.53c-1.23,0.72-1.04,2.54,0.4,2.64
					C135.79,501.21,136.18,503.74,137.79,502.1z"/>
				<path class="st10" d="M156.55,498.01c0,0.88,0.3,1.6,0.66,1.6s0.66-0.72,0.66-1.6c0-0.88-0.3-1.6-0.66-1.6
					S156.55,497.13,156.55,498.01z"/>
				<path class="st10" d="M149.51,498.01c0,0.88,0.3,1.6,0.66,1.6s0.66-0.72,0.66-1.6c0-0.88-0.3-1.6-0.66-1.6
					S149.51,497.13,149.51,498.01z"/>
				<path class="st9" d="M153.32,503.3c0,0,2.19,0.54,2.27,1.52c0.11,1.52-1.94,1.52-1.94,1.52s1-0.92,0.96-1.52
					C154.56,504.12,153.32,503.3,153.32,503.3z"/>
				<path class="st19" d="M151.47,523.78l-0.77-5.26l-15.42,0.68l-0.34,6.34c0,0,5.32,7.78,11.36,6.44
					C148.2,531.56,150.81,526.94,151.47,523.78z"/>
				<path class="st23" d="M162.96,558.96c0,0-4.45,2.67-8.14-0.69c0,0-6.76,3.69-12.59,3.01c0,0,7.87,2.68,12.45-0.68
					C154.67,560.59,160.05,563.8,162.96,558.96z"/>
				<path class="st7" d="M161.48,491.55c0.34,1.5-2.47,1.4-3.85,1.58c-3.58,0.48-7.33-0.76-10.1-3.33
					c-1.25-1.16-2.33-2.59-3.77-3.45c0,0,0.88,17.34-8.21,9.38c0,0-0.79-13.67,10.75-14.07
					C157.85,481.27,160.36,486.64,161.48,491.55z"/>
				<path class="st9" d="M150.11,510.3c0,0,3.14,1.4,5.28,0.42C155.38,510.72,153.54,513.98,150.11,510.3z"/>
				<path class="st9" d="M152.04,513.25c0,0,0.84,0.53,1.57-0.02c0,0-0.56,0.91-0.88,0.89
					C152.41,514.11,152.04,513.25,152.04,513.25z"/>
				<path class="st1" d="M143.99,519.25c0,0,1.52,7.61,0.97,12.2C144.96,531.46,143.57,526.86,143.99,519.25z"/>
				<path class="st1" d="M147.97,519.05c0,0,1.57,4.57,1.55,7.93C149.52,526.98,147.46,521.44,147.97,519.05z"/>
				<path class="st1" d="M140.7,519.9c0,0-1.42,5.5-1.13,9.44C139.57,529.34,141.47,522.66,140.7,519.9z"/>
				<path class="st1" d="M137.4,520.14c0,0-1.37,3.41-1.18,5.83C136.22,525.96,138.04,521.81,137.4,520.14z"/>
				<path class="st11" d="M141.67,481.93c0.06-0.13,0.2-0.12,0.29-0.04c0.44,0.42,0.49,1.38,0.73,1.97c0.29,0.72,0.66,1.4,1.05,2.06
					c0.13,0.22-0.15,0.44-0.31,0.27c-0.61-0.62-1.08-1.35-1.42-2.19C141.78,483.39,141.38,482.55,141.67,481.93z"/>
			</g>
		</g>
	</g>
</g>
<g>
	<ellipse class="st3" cx="592.81" cy="557.19" rx="45.2" ry="54.92"/>
	<ellipse class="st4" cx="592.81" cy="557.19" rx="38.97" ry="47.35"/>
	<g>
		<defs>
			<ellipse id="SVGID_3_" cx="592.81" cy="557.19" rx="38.97" ry="47.35"/>
		</defs>
		<clipPath id="SVGID_4_">
			<use xlink:href="#SVGID_3_"  style="overflow:visible;"/>
		</clipPath>
		<g class="st24">
			<polygon class="st5" points="587.23,575.11 601.37,576.51 630.91,592.83 630.91,655.04 557.57,655.04 557.57,596.98 			"/>
			<path class="st6" d="M570.16,587.7c0,0,5.99,56.72,7.7,67.34h-1.9c0,0-5.65-54.28-7.83-65.84L570.16,587.7z"/>
			<path class="st6" d="M622.09,587.95c0,0-8.89,56.47-10.6,67.09h1.9c0,0,8.46-54.46,10.64-66.01L622.09,587.95z"/>
			<polygon class="st3" points="613.86,583.41 606.72,655.04 581.23,655.04 577.94,581.97 587.23,575.11 603.68,577.78 			"/>
			<path class="st1" d="M594.97,655.04c-0.11-0.85-0.98-35.36-0.74-52.81c0,0-3.04,19.8-2.28,52.89L594.97,655.04z"/>
			<path class="st1" d="M599.61,568.7c0,0,7.22,5.54,8.79,9.7c1.24,3.28-5.13,23.83-5.13,23.83l-8.54-6.24l-11.09,4.72
				c0,0-0.27-22.94,2.66-25.67C589.24,572.31,599.61,568.7,599.61,568.7z"/>
			<path class="st7" d="M570.96,540.86c-0.04-2.23,3.5-7.04,3.5-7.04s-4.73,1.23-4.44-0.71c0.29-1.94,5.56-6.12,5.56-6.12
				s-3.38,0.49-2.35-1.44c1.03-1.94,8.39-7.57,12.85-7.4c4.46,0.18,9.98,4.58,9.98,4.58s6.05,0.61,9.91,3.48
				c2.14,1.58,5.11,37.5-2.17,39.22C593.46,567.86,571.17,551.74,570.96,540.86z"/>
			<path class="st8" d="M603.39,555.56l0.39,30.28c0,0-2.71,8.34-8.81,8.36c-4.37,0.02-6.31-7.74-6.75-9.08l0.89-12.84
				L603.39,555.56z"/>
			<path class="st9" d="M601.49,565.42c0,0-0.86,7.79-1.19,9.9c-0.33,2.11-11.85,6.46-11.85,6.46l0.66-9.5L601.49,565.42z"/>
			<path class="st8" d="M579.07,576.21c-2.16-0.59-3.6-10.55-3.64-11.59c-0.3-6.37-0.97-26.03-0.97-26.03
				c6.77-20.7,25.33-7.88,27.38-5.58c1.23,1.38,2.3,27.39-0.85,34.78C599.31,571.75,585.19,577.87,579.07,576.21z"/>
			<path class="st8" d="M600.44,553.09c0,0,6-9.37,8.59-3.8c2.59,5.57-2.25,10.78-7.53,11.57L600.44,553.09z"/>
			<g>
				<path class="st7" d="M575.69,548.38c-0.05-0.42,1.56-2.46,3.29-2.58c1.73-0.15,2.39,1.72,2.13,2.16
					c-0.26,0.51-1.18-0.29-2.62-0.14C577.06,547.89,575.71,548.87,575.69,548.38z"/>
			</g>
			<g>
				<path class="st7" d="M591.56,547.93c0.04-0.42-1.62-2.4-3.35-2.46c-1.74-0.08-2.35,1.81-2.07,2.24c0.27,0.5,1.17-0.33,2.62-0.24
					C590.17,547.5,591.55,548.42,591.56,547.93z"/>
			</g>
			<path class="st9" d="M582.51,551.78c0,0-0.89,6.44-2.8,7.9c0,0,0.86,2.32,3.21,1.76c0,0-1.48-0.92-2.02-1.71
				C580.9,559.72,583.29,556.61,582.51,551.78z"/>
			<path class="st9" d="M589.66,555.58c0.13,0.95,1.66,1.44,3.42,1.08c1.76-0.35,3.08-1.41,2.95-2.37
				c-0.13-0.95-1.66-1.44-3.42-1.08C590.85,553.56,589.53,554.62,589.66,555.58z"/>
			<path class="st9" d="M573.25,554.36c-0.21,0.93,0.67,2.03,1.95,2.44c1.28,0.42,2.49,0,2.69-0.94c0.2-0.93-0.67-2.03-1.95-2.44
				C574.66,553.01,573.45,553.43,573.25,554.36z"/>
			<path class="st10" d="M589.87,552.26c0,0-1.23-2.38-2.43-2.42c-1.2-0.04-2.57,2.42-2.57,2.42S587.19,550.72,589.87,552.26z"/>
			<path class="st10" d="M581.17,552.26c0,0-1.23-2.38-2.43-2.42s-2.57,2.42-2.57,2.42S578.48,550.72,581.17,552.26z"/>
			<g>
				<path class="st3" d="M588.32,566.49l-9.39-1.79c0,0,0.37,6.96,3.59,6.89C586.59,571.49,588.32,566.49,588.32,566.49z"/>
			</g>
			<path class="st9" d="M602.51,556.51c-0.55-0.59,1.27-5.55,2.75-4.67c1.49,0.88,1.3,3.26-0.4,3.43
				C604.87,555.28,604.47,558.58,602.51,556.51z"/>
			<path class="st7" d="M603.14,549.7c-1.3,1.3-5.79,0.31-6.37-3.91c-0.33-2.4,1.37-6.75,2.17-8.73c-2.46,2.22-9.23,4.6-10.19,3.87
				c-1.17-0.89-1.39-2.38-0.33-3.94c-2.06,0.96-4.65,1.82-6.81,2.33c-0.51,0.12-1.05,0.22-1.52-0.03c-0.47-0.26-0.78-1.02-0.49-1.53
				c-1.51,2.18-4.4,3.89-6.36,2.34c-1.73-1.36,5.18-16.93,16.21-15.88C608.08,526,605.27,541.47,603.14,549.7z"/>
			<path class="st7" d="M596.08,524.03c0,0,3.44-2.73,2.68-4.27c-0.38-0.77-2.47,1.5-2.47,1.33s-0.9-2.48-1.47-2.54
				C594.25,518.49,592.95,524.5,596.08,524.03z"/>
			<path class="st11" d="M588.4,536.37c0.18-0.46,0.46-0.56,0.81-0.84c0.5-0.38,0.98-0.79,1.44-1.23c0.61-0.58,1.28-1.77,2.04-1.96
				c0.07-0.02,0.12,0.05,0.11,0.14c-0.13,1.03-1.33,1.93-1.97,2.53c-0.59,0.56-1.54,1.69-2.33,1.59
				C588.41,536.59,588.36,536.48,588.4,536.37z"/>
			<path class="st11" d="M584.69,534.06c0.49-0.21,0.96-0.43,1.42-0.72c0.34-0.22,0.7-0.59,1.1-0.59c0.1,0,0.18,0.12,0.15,0.24
				c-0.13,0.52-0.63,0.82-1,1.06c-0.47,0.32-0.98,0.58-1.49,0.77C584.45,534.98,584.29,534.23,584.69,534.06z"/>
			<path class="st11" d="M577.43,530.25c0.91-0.42,1.83-0.84,2.67-1.45c0.7-0.51,1.33-1.25,2.13-1.51c0.22-0.07,0.37,0.25,0.22,0.45
				c-1.28,1.66-3.09,2.63-4.82,3.42C577.17,531.37,576.97,530.46,577.43,530.25z"/>
			<path class="st11" d="M577.54,526.68c0.23-0.14,0.51-0.17,0.76-0.24c0.25-0.07,0.5-0.17,0.75-0.22c0.29-0.05,0.3,0.42,0.13,0.59
				c-0.22,0.2-0.5,0.32-0.76,0.41c-0.26,0.1-0.54,0.19-0.81,0.14C577.36,527.31,577.32,526.82,577.54,526.68z"/>
		</g>
	</g>
</g>
<g>
	<ellipse class="st25" cx="246.11" cy="501.44" rx="16.48" ry="18.37"/>
	<path class="st26" d="M257.33,503.58c-0.12-1.4-0.63-2.65-1.6-3.82c-0.2-0.16-0.48-0.47-0.82-0.68c-0.07-0.04-0.14-0.09-0.22-0.13
		c-0.01,0-0.01-0.01-0.02-0.01c-0.04-0.02-0.08-0.05-0.12-0.07c-0.14-0.08-0.27-0.16-0.41-0.24c-0.07-0.04-0.14-0.08-0.21-0.12
		c-0.16-0.09-0.31-0.17-0.47-0.25c-0.04-0.02-0.08-0.04-0.12-0.06c0,0,0,0-0.01,0c-0.43-0.21-0.85-0.41-1.28-0.59
		c0,0-0.01-0.01-0.01-0.01c-0.04-0.02-0.09-0.03-0.13-0.05c-0.12-0.05-0.24-0.1-0.36-0.14c-0.03-0.01-0.06-0.02-0.09-0.04
		c-0.08-0.03-0.16-0.06-0.24-0.09c-0.04-0.02-0.09-0.03-0.13-0.05c-0.16-0.06-0.33-0.11-0.49-0.16c-0.03-0.01-0.06-0.02-0.09-0.03
		c-0.13-0.04-0.27-0.08-0.4-0.12c-0.05-0.01-0.11-0.03-0.16-0.04c-0.12-0.03-0.23-0.06-0.35-0.09c-0.05-0.01-0.1-0.03-0.16-0.04
		c-0.15-0.03-0.29-0.07-0.44-0.09c-0.02,0-0.04-0.01-0.06-0.01c-0.16-0.03-0.33-0.06-0.49-0.09c-0.05-0.01-0.1-0.01-0.14-0.02
		c-0.12-0.02-0.24-0.03-0.36-0.05c-0.05-0.01-0.11-0.01-0.16-0.02c-0.12-0.01-0.25-0.03-0.37-0.04c-0.04,0-0.09-0.01-0.13-0.01
		c-0.16-0.01-0.33-0.02-0.49-0.03c-0.03,0-0.07,0-0.1,0c-0.13-0.01-0.26-0.01-0.39-0.01c-0.05,0-0.11,0-0.16,0
		c-0.12,0-0.23,0-0.35,0c-0.05,0-0.1,0-0.15,0c-0.15,0.01-0.3,0.01-0.46,0.02c-0.01,0-0.03,0-0.04,0c-0.14,0.01-0.29,0.02-0.43,0.04
		c0,0-0.01,0-0.01,0c-2.39,0.24-4.78,1.06-7.17,2.48c-0.71,0.42-1.35,1.17-1.79,1.93c-0.72,1.23-0.98,2.28-0.82,3.26
		c0.11,0.66,0.4,1.3,0.88,1.93c0.29,0.39,0.58,0.52,1.02,0.39c1.26-0.38,2.52-0.75,3.77-1.11c0.37-0.11,0.55-0.35,0.62-0.68
		c0.03-0.13,0.03-0.27,0.03-0.42c-0.02-0.55-0.05-1.11-0.08-1.66c-0.01-0.22-0.03-0.44-0.04-0.66c-0.04-0.58,0.2-0.9,0.68-1.07
		c2.86-1.01,5.72-1.02,8.58,0c0.51,0.18,0.77,0.5,0.72,1.11c-0.02,0.21-0.03,0.42-0.05,0.63c-0.04,0.54-0.07,1.07-0.09,1.61
		c-0.01,0.16,0,0.32,0.03,0.47c0.06,0.28,0.21,0.51,0.54,0.61c1.32,0.4,2.63,0.8,3.96,1.17c0.21,0.06,0.53,0.04,0.66-0.1
		c0.53-0.57,0.98-1.22,1.13-2C257.34,504.12,257.35,503.86,257.33,503.58z"/>
	<path class="st11" d="M294.18,498.72v-1.3c0-1.45-1.06-2.63-2.36-2.63h-8.43c-1.3,0-2.36,1.18-2.36,2.63v8.06
		c0,1.45,1.06,2.63,2.36,2.63h8.43c1.3,0,2.36-1.18,2.36-2.63v-1.3l3.02,1.94c0.54,0.35,1.22-0.09,1.22-0.78v-3.89v-3.89
		c0-0.7-0.68-1.13-1.22-0.78L294.18,498.72z"/>
	<g>
		<path class="st11" d="M202.49,504.69L202.49,504.69c-1.92,0-3.48-1.74-3.48-3.88v-4.9c0-2.15,1.56-3.88,3.48-3.88l0,0
			c1.92,0,3.48,1.74,3.48,3.88v4.9C205.98,502.95,204.42,504.69,202.49,504.69z"/>
		<path class="st11" d="M202.49,507.56c-3.34,0-6.06-3.03-6.06-6.76v-1.43h1.52v1.43c0,2.79,2.04,5.06,4.54,5.06
			s4.54-2.27,4.54-5.06v-1.43h1.52v1.43C208.56,504.53,205.84,507.56,202.49,507.56z"/>
		<rect x="201.73" y="506.71" class="st11" width="1.52" height="4.39"/>
		<rect x="198.78" y="510.25" class="st11" width="7.42" height="1.7"/>
	</g>
</g>
<g>
	<ellipse class="st25" cx="465.17" cy="501.44" rx="16.48" ry="18.37"/>
	<path class="st26" d="M476.39,503.58c-0.12-1.4-0.63-2.65-1.6-3.82c-0.19-0.16-0.48-0.47-0.82-0.68c-0.07-0.04-0.14-0.09-0.22-0.13
		c-0.01,0-0.01-0.01-0.02-0.01c-0.04-0.02-0.08-0.05-0.12-0.07c-0.14-0.08-0.27-0.16-0.41-0.24c-0.07-0.04-0.14-0.08-0.21-0.12
		c-0.16-0.09-0.31-0.17-0.47-0.25c-0.04-0.02-0.08-0.04-0.12-0.06c0,0,0,0-0.01,0c-0.43-0.21-0.85-0.41-1.28-0.59
		c0,0-0.01-0.01-0.01-0.01c-0.04-0.02-0.09-0.03-0.13-0.05c-0.12-0.05-0.24-0.1-0.36-0.14c-0.03-0.01-0.06-0.02-0.09-0.04
		c-0.08-0.03-0.16-0.06-0.24-0.09c-0.04-0.02-0.09-0.03-0.13-0.05c-0.16-0.06-0.33-0.11-0.49-0.16c-0.03-0.01-0.06-0.02-0.09-0.03
		c-0.13-0.04-0.27-0.08-0.4-0.12c-0.05-0.01-0.11-0.03-0.16-0.04c-0.12-0.03-0.23-0.06-0.35-0.09c-0.05-0.01-0.1-0.03-0.16-0.04
		c-0.15-0.03-0.29-0.07-0.44-0.09c-0.02,0-0.04-0.01-0.06-0.01c-0.16-0.03-0.33-0.06-0.49-0.09c-0.05-0.01-0.1-0.01-0.14-0.02
		c-0.12-0.02-0.24-0.03-0.36-0.05c-0.05-0.01-0.11-0.01-0.16-0.02c-0.12-0.01-0.25-0.03-0.37-0.04c-0.04,0-0.09-0.01-0.13-0.01
		c-0.16-0.01-0.33-0.02-0.49-0.03c-0.03,0-0.07,0-0.1,0c-0.13-0.01-0.26-0.01-0.39-0.01c-0.05,0-0.11,0-0.16,0
		c-0.12,0-0.23,0-0.35,0c-0.05,0-0.1,0-0.15,0c-0.15,0.01-0.3,0.01-0.46,0.02c-0.01,0-0.03,0-0.04,0c-0.14,0.01-0.29,0.02-0.43,0.04
		c0,0-0.01,0-0.01,0c-2.39,0.24-4.78,1.06-7.17,2.48c-0.71,0.42-1.35,1.17-1.79,1.93c-0.72,1.23-0.98,2.28-0.82,3.26
		c0.11,0.66,0.4,1.3,0.88,1.93c0.29,0.39,0.58,0.52,1.02,0.39c1.26-0.38,2.52-0.75,3.77-1.11c0.37-0.11,0.55-0.35,0.62-0.68
		c0.03-0.13,0.03-0.27,0.03-0.42c-0.02-0.55-0.05-1.11-0.08-1.66c-0.01-0.22-0.03-0.44-0.04-0.66c-0.04-0.58,0.2-0.9,0.68-1.07
		c2.86-1.01,5.72-1.02,8.58,0c0.51,0.18,0.77,0.5,0.72,1.11c-0.02,0.21-0.03,0.42-0.05,0.63c-0.04,0.54-0.07,1.07-0.09,1.61
		c-0.01,0.16,0,0.32,0.03,0.47c0.06,0.28,0.21,0.51,0.54,0.61c1.32,0.4,2.63,0.8,3.96,1.17c0.21,0.06,0.53,0.04,0.66-0.1
		c0.53-0.57,0.98-1.22,1.13-2C476.4,504.12,476.42,503.86,476.39,503.58z"/>
	<path class="st11" d="M513.24,498.72v-1.3c0-1.45-1.06-2.63-2.36-2.63h-8.43c-1.3,0-2.36,1.18-2.36,2.63v8.06
		c0,1.45,1.06,2.63,2.36,2.63h8.43c1.3,0,2.36-1.18,2.36-2.63v-1.3l3.02,1.94c0.54,0.35,1.22-0.09,1.22-0.78v-3.89v-3.89
		c0-0.7-0.68-1.13-1.22-0.78L513.24,498.72z"/>
	<g>
		<path class="st11" d="M421.56,504.69L421.56,504.69c-1.92,0-3.48-1.74-3.48-3.88v-4.9c0-2.15,1.56-3.88,3.48-3.88l0,0
			c1.92,0,3.48,1.74,3.48,3.88v4.9C425.04,502.95,423.48,504.69,421.56,504.69z"/>
		<path class="st11" d="M421.56,507.56c-3.34,0-6.06-3.03-6.06-6.76v-1.43h1.52v1.43c0,2.79,2.04,5.06,4.54,5.06
			c2.5,0,4.54-2.27,4.54-5.06v-1.43h1.52v1.43C427.62,504.53,424.9,507.56,421.56,507.56z"/>
		<rect x="420.8" y="506.71" class="st11" width="1.52" height="4.39"/>
		<rect x="417.85" y="510.25" class="st11" width="7.42" height="1.7"/>
	</g>
</g>
</svg>
