<?xml version="1.0" encoding="utf-8"?>
<!-- Generator: Adobe Illustrator 24.1.3, SVG Export Plug-In . SVG Version: 6.00 Build 0)  -->
<svg version="1.1" xmlns="http://www.w3.org/2000/svg" xmlns:xlink="http://www.w3.org/1999/xlink" x="0px" y="0px"
	 viewBox="0 0 800 800" style="enable-background:new 0 0 800 800;" xml:space="preserve">
<style type="text/css">
	.st0{fill:#FABB9D;}
	.st1{fill:none;stroke:#FFFCDE;stroke-miterlimit:10;}
	.st2{fill:#CE8260;}
	.st3{fill:#FD5C5D;}
	.st4{fill:#F9938E;}
	.st5{fill:#F5BCA8;}
	.st6{fill:#8B3E4F;}
	.st7{fill:#007CFF;}
	.st8{fill:#435451;}
	.st9{fill:#3A7049;}
	.st10{fill:#FFFFFF;}
	.st11{fill:#802236;}
	.st12{fill:#A31A5D;}
	.st13{fill:#F1F2D3;}
	.st14{fill:#D44F77;}
	.st15{fill:#5D5D5D;}
	.st16{fill:#72B3FF;}
	.st17{fill:#430A23;}
</style>
<g id="Background">
</g>
<g id="Objects">
	<g>
		<g>
			<path class="st0" d="M20.06,474.23C2.15,557.12,234.6,728.55,319.29,667.97c84.68-60.59,52.4-344.72,5.53-364.71
				C247.59,270.31,40.01,381.84,20.06,474.23z"/>
			<path class="st1" d="M19.56,493.45c-9.89,84.41,237.73,229.58,316.18,160.08c78.45-69.51,19.18-348.64-29.35-363.41
				C226.41,265.77,30.58,399.37,19.56,493.45z"/>
			<path class="st2" d="M779.94,474.23c17.9,82.89-214.55,254.32-299.23,193.74c-84.68-60.59-52.4-344.72-5.53-364.71
				C552.41,270.31,759.99,381.84,779.94,474.23z"/>
			<path class="st1" d="M780.3,497.74c8.08,84.63-242.58,223.72-319.52,152.32s-11.72-349.02,37.12-362.6
				C578.37,265.07,771.29,403.42,780.3,497.74z"/>
			<path class="st3" d="M74.17,516.32c-3.48-15.02-4.28-30.67-1.84-45.94c5.17-32.42,23.02-52.14,46.49-70.91
				c22.76-18.21,22.51-46.74,35.05-71.87c13.67-27.4,45.59-39.69,74.58-37.48c28.99,2.21,55.91,16.12,81.99,29.83
				c5.01,2.63,10.09,5.32,14.16,9.39c4.07,4.07,7.06,9.8,6.7,15.75c-0.81,13.23-16.24,19.66-21.1,31.86
				c-6.87,17.24,9.87,35.96,7.42,54.51c-2.12,16.07-18.99,25.8-25.26,40.69c-6.28,14.92-8.57,31.65-10.01,47.8
				c-2.52,28.39-4.41,59.51-22.68,80.3c-20.42,23.24-54.77,25.21-83.7,17.4c-30.64-8.28-59.42-26.12-79.17-52.49
				C86.13,550.9,78.28,534.05,74.17,516.32z"/>
			<path class="st4" d="M176.24,461.83c-2.29-3.64-1.76-8.53-0.41-12.67c2.92-8.96,9.37-16.55,17.44-20.52
				c3.89-1.91,8.47-2.99,12.43-1.25c5.89,2.58,8.14,10.03,11.99,15.45c-1.61,11.05-3.21,22.11-4.82,33.16
				c-8.91-2.74-17.81-5.48-26.72-8.22C182.44,466.64,178.4,465.27,176.24,461.83z"/>
			<path class="st5" d="M275.36,446.98c-3.17,9.23-9.01,19.37-18.36,22.8c-12.74,4.67-26.06-3.13-36.11-10.97
				c-10.49-8.19-22.23-18.57-27.33-31.67c-4.31-11.07-3.61-23.69-1.01-35.35c4.41-19.74,14.17-38.08,27.78-52.23
				c7.92-8.23,17.4-15.19,28.18-17.77c10.78-2.58,22.99-0.19,30.87,8.08c5.45,5.71,8.43,13.7,9.55,21.76
				c1.12,8.06,0.53,16.28-0.31,24.39c-1.77,17.17-4.61,33.93-8.13,50.78C279.28,432.7,277.75,440.02,275.36,446.98z"/>
			<path class="st3" d="M185.52,450.57c-3.92,4.25-8.58,7.83-14.12,10.55c-10.88,5.33-25.5,4.02-32.7-6.21
				c-7.01-9.95-4.77-24.04-1.02-35.83c3.18-9.97,7.21-19.62,12.04-28.8c4.28-8.15,8.07-17.02,12.64-24.82
				c9.9-16.86,24.84-31.6,41.05-41.28c20.57-12.3,45.55-16.91,68.27-10.19c6.64,1.96,13.43,5.19,17.18,11.36
				c4.62,7.6,3.08,18.62-3.1,24.82c-6.13,6.16-15.24,7.37-23.65,7.18c-8.41-0.19-17-1.46-25.11,0.92
				c-11.41,3.35-20.12,13.56-25.38,24.88c-5.27,11.32-7.65,23.87-10.63,36.1C198.1,431.16,193.28,442.15,185.52,450.57z"/>
			<path class="st4" d="M363.61,487.44c-2.9-0.97-22.5,16.85-22.5,16.85c4.94-6.64,24.52-29.69,20.65-30.52
				c-3.88-0.83-24.99,20.84-24.99,20.84s20.28-29.99,19.61-32.05s-8.45,3.31-16.97,15.01c-6.76,9.29-16.29,26.14-18.67,30.52
				c1.84-5.65-4.3-30.21-6.39-28.64c-2.16,1.63-4.28,30.21-3.54,49.9c0.22,5.87-0.71,12.11-2.61,18.91
				c5.65,3.89,11.34,7.73,16.95,11.68c1.32-4.63,2.56-8.62,3.77-11.8c8.28-21.63,33.97-44.91,31.85-45.78
				c-2.13-0.86-19.27,14.84-19.27,14.84C344.31,512.14,366.51,488.41,363.61,487.44z"/>
			<path class="st6" d="M226.72,483.98c18.05,3.28,32.57,18.6,40.68,36.14c8.1,17.55,7.11,33.3,9.73,52.67
				c1.56,11.5,3.12,23.01,4.67,34.51c8.01-22.66,18.11-44.85,26.13-67.51l25.15,12.41c-9.81,30.98-13.75,57.92-25.27,86.48
				c-3.6,8.93-8.4,18.68-17.12,21.48c-9.85,3.17-18.04-2.06-25.33-9.82c-17.07-18.15-23.47-43.41-28.49-68.57
				c-3.13-15.67-5.46-26.07-5.91-42.08C230.42,521.35,227.24,502.31,226.72,483.98z"/>
			<path class="st6" d="M244.78,499.9c-8.95-14.54-20.32-22.36-36.21-26.2c-16.29-3.94-32.73-7.16-49.26-9.64l0.91,1.74
				c-6.27-10.35-20.78-11.67-31.04-6.05c-10.26,5.63-17.17,16.26-23.32,26.69c-17.7,30.02-32.66,61.83-45.08,94.74
				c8.57,8.72,17.47,17.07,26.05,25.77c13.09-29.67,28.81-58.01,46.95-84.48c-1.71,16.57-0.58,33.56-1.18,50.22
				c-0.6,16.66-3.79,34-13.65,46.92c25.16,22.68,53.13,40.27,85.87,43.83c10.3-21.44,18.43-44.07,24.19-67.37
				c10.01-1.51,17.53-10.34,21.67-20.2c4.13-9.86,5.04-20.86,5.9-31.63C257.84,528.31,253,513.26,244.78,499.9z"/>
			<path class="st7" d="M149.93,589.6c10.11,5.51,20.23,11.02,30.34,16.53c-3.54-40.15,0.73-81.06,12.44-119.4
				c-7.8-2.89-15.61-5.79-23.41-8.68C159.78,514.53,153.29,551.9,149.93,589.6z"/>
			<g>
				<path class="st8" d="M242.59,380.24c2.58,0.68,5.44-0.03,7.48-1.84c-1.12,2.89-4.13,4.8-7.04,4.49
					C242.89,382,242.74,381.12,242.59,380.24z"/>
				<path class="st9" d="M244.43,385.99c-0.74,5.4-3.93,9.37-7.13,8.88c-3.2-0.5-5.2-5.28-4.47-10.68c0.74-5.4,3.93-9.37,7.13-8.88
					C243.17,375.81,245.17,380.59,244.43,385.99z"/>
				<path class="st8" d="M242.4,385.68c-0.48,3.51-2.55,6.09-4.64,5.77c-2.08-0.32-3.38-3.43-2.9-6.94
					c0.48-3.51,2.55-6.09,4.64-5.77C241.58,379.06,242.88,382.16,242.4,385.68z"/>
				<path class="st10" d="M243.55,383.04c-0.04,0.7-0.6,1.23-1.25,1.18c-0.65-0.04-1.15-0.64-1.11-1.34c0.04-0.7,0.6-1.23,1.25-1.18
					C243.09,381.74,243.59,382.34,243.55,383.04z"/>
			</g>
			<g>
				<path class="st8" d="M280.84,386.51c2.58,0.68,5.44-0.03,7.48-1.84c-1.12,2.89-4.13,4.8-7.04,4.49
					C281.13,388.27,280.99,387.39,280.84,386.51z"/>
				<path class="st9" d="M282.68,392.26c-0.74,5.4-3.93,9.37-7.13,8.88c-3.2-0.5-5.2-5.28-4.47-10.68c0.74-5.4,3.93-9.37,7.13-8.88
					C281.42,382.08,283.42,386.86,282.68,392.26z"/>
				<path class="st8" d="M280.65,391.94c-0.48,3.51-2.55,6.09-4.64,5.77c-2.08-0.32-3.38-3.43-2.9-6.94
					c0.48-3.51,2.55-6.09,4.64-5.77C279.83,385.32,281.13,388.43,280.65,391.94z"/>
				<path class="st10" d="M281.8,389.31c-0.04,0.7-0.6,1.23-1.25,1.18c-0.65-0.04-1.15-0.64-1.11-1.34s0.6-1.23,1.25-1.18
					C281.34,388.01,281.84,388.61,281.8,389.31z"/>
			</g>
			<path class="st11" d="M250.91,369.66c0.03-3.17-2-6.04-4.54-7.67c-2.54-1.63-5.54-2.2-8.48-2.58c-2.88-0.37-5.85-0.57-8.66,0.23
				c-2.81,0.8-5.46,2.75-6.55,5.63C232.1,362.31,242.68,363.96,250.91,369.66z"/>
			<path class="st11" d="M290.86,375.69c-1-5-5.29-9.03-10.06-9.44c-4.77-0.41-9.61,2.83-11.34,7.59
				C276.23,370.42,284.68,371.15,290.86,375.69z"/>
			<g>
				<path class="st4" d="M247.3,433.85c1.02,0.7,2.14,1.32,3.35,1.45c1.21,0.13,2.54-0.33,3.2-1.42c1.01-1.66,0.1-3.94-1.25-5.29
					c-1.35-1.35-3.1-2.22-4.33-3.7c-1.27-1.52-1.88-3.53-2.96-5.21c-1.08-1.68-3.03-3.07-4.82-2.36c-1.35,0.54-2.12,2.16-2.13,3.7
					c-0.01,1.54,0.61,3,1.33,4.34C241.56,428.78,244.19,431.72,247.3,433.85z"/>
				<path class="st4" d="M252.17,439.99c-7.3,1.79-15.5-2.91-18.14-10.41c-0.4-1.14-0.69-2.37-0.5-3.57
					c0.19-1.2,0.93-2.36,2.03-2.69c1.31-0.39,2.64,0.44,3.73,1.3C243.54,428,249.65,435.01,252.17,439.99z"/>
				<path class="st12" d="M239.71,435.1c2.53,2.24,5.51,3.89,8.68,4.81c1.49,0.43,3.07,0.7,4.57,0.33c1.5-0.37,2.92-1.49,3.33-3.08
					c0.47-1.79-0.43-3.72-1.71-4.99c-1.28-1.27-2.89-2.06-4.38-3.04c-2.95-1.94-5.43-4.68-7.16-7.89c-1.08-2.02-2.09-4.43-4.15-5.16
					c-1.97-0.7-4.22,0.58-5.26,2.51c-1.03,1.93-1.05,4.31-0.63,6.48C234.07,430.46,235.75,431.6,239.71,435.1z"/>
				<path class="st13" d="M243.05,421.25c1.72,3.21,4.21,5.95,7.16,7.89c1.48,0.98,3.1,1.77,4.38,3.04c0.52,0.52,0.97,1.15,1.3,1.83
					c-5,0.21-10.09-2.19-13.22-6.4c-2.35-3.17-3.51-7.28-3.37-11.32C241.09,417.18,242.04,419.37,243.05,421.25z"/>
				<path class="st14" d="M243.91,438.05c-1.49-0.82-2.9-1.8-4.2-2.94c-3.97-3.51-5.64-4.64-6.7-10.02
					c-0.43-2.17-0.41-4.55,0.63-6.48c0.19-0.35,0.42-0.66,0.68-0.96c0.27,0.34,0.52,0.68,0.77,1.02
					C239.16,424.44,242.15,431.06,243.91,438.05z"/>
			</g>
			<path class="st4" d="M215.92,398.23c-2.06-0.05-4.34,0.79-5.22,2.78c-0.82,1.86-0.09,4.22,1.38,5.55
				c1.46,1.34,3.49,1.78,5.41,1.69c1.36-0.07,2.78-0.43,3.74-1.46c1.43-1.54,1.32-4.25,0.08-5.97
				C220.06,399.09,217.95,398.28,215.92,398.23z"/>
			<path class="st4" d="M275.02,414.9c-2.06-0.05-4.34,0.79-5.22,2.78c-0.82,1.86-0.09,4.22,1.38,5.55
				c1.46,1.34,3.49,1.78,5.41,1.68c1.36-0.07,2.78-0.43,3.74-1.46c1.43-1.54,1.32-4.25,0.08-5.97
				C279.16,415.77,277.05,414.95,275.02,414.9z"/>
			<g>
				<g>
					<g>
						<path class="st15" d="M258.65,423.75c0.08-0.14,0.6,0.27,1.55,0.08c0.92-0.17,2.23-1.02,2.67-2.72
							c0.5-1.66,0.33-3.98,0.25-6.49c-0.11-2.52-0.35-5.29-0.59-8.22c-0.24-2.93-0.42-5.75-0.42-8.33c0-2.58,0.19-4.9,0.45-6.83
							c0.57-3.87,1.41-6.14,1.61-6.09c0.27,0.06-0.14,2.41-0.38,6.21c-0.1,1.9-0.16,4.16-0.07,6.68c0.08,2.52,0.31,5.28,0.55,8.21
							c0.24,2.93,0.44,5.74,0.46,8.31c0,1.29,0,2.5-0.07,3.66c-0.07,1.16-0.24,2.29-0.62,3.28c-0.36,0.98-1.01,1.83-1.72,2.3
							c-0.7,0.49-1.45,0.7-2.06,0.7c-0.61,0.01-1.07-0.2-1.31-0.38C258.69,423.94,258.62,423.79,258.65,423.75z"/>
					</g>
				</g>
			</g>
			<path class="st16" d="M234.64,499.74c-0.64,2.95-1.09,5.1-1.15,5.48c-12.32-0.69-24.48-3.3-36.13-7.59
				c-10.2-3.76-20.72-5.18-30.83-9.96c-1.46-0.69-18.99-8.54-18.73-9.3c0.84-2.5,10.65-29.42,13.07-28.58
				c26.38,9.17,52.77,18.33,79.15,27.5C239.66,477.11,236.42,491.53,234.64,499.74z"/>
			<g>
				<path class="st5" d="M545.65,423.87c5.24,9.27,10.48,18.54,15.72,27.81c23.33-4.63,45.15-20.16,56.23-42.57
					c-9.54-19.48-18.9-39.98-28.43-59.46C574.25,373.68,560.56,399.83,545.65,423.87z"/>
				<path class="st4" d="M575.05,418.81c9.37-13.92,14.07-31.99,12.92-49.63l-11.62,1.97c-10.2,17.64-20.15,35.71-30.71,52.73
					c2.79,4.94,5.59,9.88,8.38,14.83C562.17,433.95,569.44,427.16,575.05,418.81z"/>
				<path class="st5" d="M485.01,310.85c-3.83,8.52-4.12,18.34-3.7,27.78c0.79,17.74,3.83,35.26,7.78,52.47
					c2.03,8.81,4.21,17.62,6.66,26.31c1.69,5.99,2.23,13.71,7.42,17.48c3.75,2.72,8.46,3.41,12.99,3.6
					c17.2,0.75,35.76-4.01,49.61-15.27c13.8-11.23,19.83-30.17,23.59-47.55c4.08-18.82,8.58-40.31,5.04-59.52
					c-2.78-15.11-11.64-29.71-25.13-35.12c-11.83-4.75-25.02-1.9-37.35,1.05c-9.12,2.18-18.33,4.43-26.75,8.76
					C496.75,295.18,489.06,301.84,485.01,310.85z"/>
				<path class="st6" d="M591.43,350.14c-1.36,2.64-3.93,4.53-6.73,4.92c-2.8,0.4-5.74-0.7-7.7-2.87c-2.21-2.45-3.06-5.98-3.2-9.38
					c-0.29-6.7,1.92-13.48,6.04-18.54c-3.13,1.1-5.83-1.81-7.15-5.04c-1.32-3.23-1.08-6.91-0.82-10.42
					c-2.84,2.33-6.39,2.16-9.81,1.02c-3.42-1.14-6.25-4.13-7.35-7.77c-3.02,3.99-8.31,5.31-13.1,5.06
					c-4.79-0.25-9.41-3.08-12.04-7.36c-3.94,6.82-12.92,9.6-20.2,7.64c-0.61,3.28-3.25,6.02-6.34,6.57c-3.09,0.55-6.42-1.12-8-4.02
					c-1.68,4.02-3.84,8.09-7.39,10.33c-3.55,2.24-8.04,2.94-11.89,1.34s-6.81-5.67-6.84-10.08c-4.3,0.97-8.69-1.47-11.44-5.13
					c-2.75-3.66-3.37-9.01-1.55-13.28c1.82-4.27,6-7.28,10.39-7.48c-2.05-5.07-1.94-11.94,2.19-15.27
					c4.13-3.33,10.38-3.2,14.39,0.29c-0.45-5.37,0.75-10.57,5.24-13.03c4.5-2.46,10.36-1.7,14.17,1.83c0.4-0.12,0.8-0.23,1.2-0.35
					c-1-4.21,2.56-7.52,6.53-8.48c3.97-0.95,8.07,0.48,11.83,2.14c5.01-2.76,11.9-0.73,15.94,3.47c-0.04-0.41-0.08-0.83-0.12-1.24
					c-0.8-8.37,8.53-13.83,16.41-13.93c7.87-0.1,15.34,6.59,16.62,14.9c3.38-3.31,10.08-4.37,14.19-2.2
					c4.11,2.17,6.74,7.18,6.33,12.06c4.44-1.62,9.79,0.22,12.51,4.31c2.72,4.09,2.59,10.09-0.31,14.04c4.48-0.52,7.46,3.45,9.1,7.93
					c1.64,4.48,0.14,10.05-3.49,12.91c4.31,2.01,6.92,7.49,5.9,12.4c-1.02,4.9-5.55,8.7-10.25,8.57c2.08,1.99,2.86,5.39,1.89,8.19
					c-0.98,2.8-3.66,4.81-6.45,4.86c-0.18,5.25-5.67,9.48-10.39,8.01"/>
				<path class="st5" d="M586.82,341.5c-0.07-3.72-0.13-7.54,1.08-11.03c1.21-3.49,3.98-6.62,7.45-6.97
					c2.44-0.25,4.88,0.92,6.67,2.7c1.8,1.78,3.02,4.13,3.97,6.54c1.87,4.74,2.8,9.99,2.07,15.07c-0.72,5.08-3.21,9.97-7.17,12.9
					c-4.48,3.32-11.18,5.01-13.14-1.52C586.06,353.53,586.92,347.22,586.82,341.5z"/>
				<path class="st4" d="M595.68,355.98c-1.32-5.48-1.92-11.29-2.84-16.87c-0.36-2.16-0.69-4.5,0.26-6.44
					c0.67-1.37,2.05-2.4,3.51-2.33c1.45,0.06,2.83,1.38,2.84,2.93c0.01,1.63-1.33,2.96-1.52,4.58c-0.23,1.92,1.16,3.6,2.5,4.9
					c1.95,1.9,3.45,4.08,2.08,6.95C602.19,350.38,595.83,356.62,595.68,355.98z"/>
				<path class="st6" d="M490.8,326.77c2.94-1.68,6.4-2.83,9.6-1.84c2.4,0.75,4.44,2.72,5.37,5.2c0.93,2.48,0.73,5.41-0.52,7.73
					c-7.45-2.64-16.46,1.86-19.36,9.65c-2.75-1.13-5.87-2.7-6.53-5.77c-0.53-2.48,0.81-4.97,2.31-6.94
					C484.18,331.51,487.3,328.76,490.8,326.77z"/>
				<path class="st6" d="M523.78,331.47c-2.8-2.04-3.76-6.27-2.68-9.7c1.08-3.43,3.86-6.04,7-7.41c3.14-1.36,6.61-1.61,9.99-1.46
					c4.32,0.19,8.69,1.04,12.47,3.26c3.78,2.23,6.93,5.98,7.86,10.48c-1.36,0.55-2.43,1.86-2.77,3.37
					c-1.87-3.76-6.45-4.79-10.43-4.8C537.73,325.19,530.23,327.38,523.78,331.47z"/>
				<g>
					<path class="st6" d="M505.15,352.04c1.48,4,0.76,8.06-1.62,9.07c-2.37,1-5.5-1.43-6.98-5.43c-1.48-4-0.76-8.06,1.62-9.07
						C500.55,345.61,503.67,348.04,505.15,352.04z"/>
					<path class="st17" d="M503.65,352.68c0.96,2.6,0.49,5.24-1.05,5.9c-1.54,0.65-3.58-0.93-4.54-3.53
						c-0.96-2.6-0.49-5.24,1.05-5.9C500.65,348.49,502.69,350.08,503.65,352.68z"/>
					<path class="st10" d="M503.46,350.4c0.23,0.49,0.04,1.09-0.42,1.34c-0.46,0.24-1.02,0.04-1.25-0.45
						c-0.23-0.49-0.04-1.09,0.42-1.34C502.68,349.7,503.24,349.9,503.46,350.4z"/>
				</g>
				<g>
					<path class="st6" d="M539.15,344.4c1,4.17-0.2,8.1-2.67,8.78c-2.47,0.68-5.29-2.16-6.29-6.33c-1-4.17,0.2-8.1,2.67-8.78
						C535.33,337.39,538.15,340.23,539.15,344.4z"/>
					<path class="st17" d="M537.58,344.82c0.65,2.71-0.13,5.27-1.74,5.71c-1.61,0.44-3.44-1.4-4.09-4.12
						c-0.65-2.71,0.13-5.27,1.74-5.71C535.1,340.27,536.93,342.11,537.58,344.82z"/>
					<path class="st10" d="M537.66,342.54c0.17,0.52-0.09,1.09-0.58,1.27c-0.49,0.18-1.02-0.1-1.19-0.62
						c-0.17-0.52,0.09-1.09,0.58-1.27C536.96,341.74,537.49,342.01,537.66,342.54z"/>
				</g>
				<path class="st5" d="M516.47,581.61l-42.57-70.97c0,0,3.03-14.22-6.55-23.75c0,0-3.24-23.88-2.56-26.06
					c0.68-2.18,5.1-11.96,4.17-14.38c-0.93-2.41-12.2,3.83-13.05,7.2c-0.85,3.37-4.38,25.7-4.38,25.7s-59.48-23.87-61.87-22.06
					c-2.39,1.81,0.18,10.19,2.74,12.85c2.56,2.66,22.22,4.02,22.22,4.02s13.68,12.53,24.57,14.03c0,0-10.24,3.28-11.21,7.18
					c-0.97,3.91,2.47,7.65,2.47,7.65s-8.17,5.15-6.87,8.92c1.29,3.77,7.11,8.41,7.11,8.41s-5.16,7.91-2.72,10.08
					c2.45,2.17,17.7,9.91,20.16,8.55c2.46-1.36,5.82-4.68,5.82-4.68s14.1,25.08,22.63,56.89s32.2,66.5,50.06,61.48
					c17.86-5.02,40.24-60.61,40.24-60.61L516.47,581.61z"/>
				<polygon class="st5" points="717.2,467.06 767.59,528.78 731.94,567.88 687.81,509.73 				"/>
				<path class="st7" d="M697.44,597.87c13.29-10.65,26.99-21.52,39.84-33.32l-35.99-48.26l29.82-42.12c0,0-33.45-55.18-59.96-57.87
					c-26.51-2.69-48.61,3.27-48.61,3.27l-46.44,30.59l-29.37,6.44c0,0-14.89,13.14-25.14,35.45c-10.25,22.3-5.11,89.57-5.11,89.57
					l53.2,21.31l5.6-13.01l27.84,73.45C636.91,645.86,667.4,621.94,697.44,597.87z"/>
				<path class="st16" d="M572.37,445.29l41.27-44.32c0,0,3.3-4.83,7.61-1.72c4.31,3.1,18.84,18.86,18.84,18.86
					s-32.39,36.89-36.7,41.31s-30.53-7.75-30.53-7.75s-7.94,21.95-10.09,23.45c-2.15,1.5-23.81-17.81-23.81-17.81L554,438.13
					L572.37,445.29z"/>
				<g>
					<path class="st4" d="M539.62,397.11c-0.94,0.64-1.96,1.22-3.07,1.34c-1.11,0.12-2.33-0.3-2.94-1.3
						c-0.93-1.52-0.1-3.62,1.14-4.86c1.24-1.24,2.84-2.04,3.98-3.4c1.17-1.39,1.73-3.24,2.72-4.78c0.99-1.54,2.78-2.82,4.42-2.17
						c1.24,0.49,1.95,1.99,1.95,3.4c0,1.41-0.56,2.76-1.23,3.98C544.89,392.46,542.48,395.15,539.62,397.11z"/>
					<path class="st4" d="M535.15,402.75c6.7,1.65,14.24-2.68,16.66-9.56c0.37-1.05,0.63-2.17,0.46-3.28
						c-0.17-1.1-0.86-2.17-1.86-2.47c-1.2-0.36-2.43,0.41-3.43,1.2C543.07,391.74,537.46,398.18,535.15,402.75z"/>
					<path class="st12" d="M546.59,398.26c-2.32,2.05-5.06,3.57-7.97,4.41c-1.37,0.4-2.82,0.65-4.2,0.31
						c-1.38-0.34-2.68-1.37-3.06-2.83c-0.43-1.65,0.4-3.41,1.57-4.58c1.17-1.16,2.66-1.89,4.02-2.79c2.71-1.78,4.99-4.3,6.57-7.24
						c1-1.85,1.92-4.06,3.82-4.74c1.81-0.64,3.88,0.53,4.83,2.3c0.95,1.77,0.97,3.95,0.58,5.95
						C551.77,394,550.23,395.04,546.59,398.26z"/>
					<path class="st13" d="M543.52,385.54c-1.58,2.95-3.87,5.46-6.57,7.24c-1.36,0.9-2.85,1.62-4.02,2.79
						c-0.48,0.48-0.89,1.06-1.19,1.68c4.6,0.2,9.27-2.01,12.14-5.88c2.16-2.91,3.23-6.68,3.09-10.4
						C545.32,381.8,544.45,383.82,543.52,385.54z"/>
					<path class="st14" d="M542.74,400.96c1.37-0.75,2.67-1.65,3.85-2.7c3.64-3.22,5.18-4.26,6.15-9.2c0.39-2,0.38-4.18-0.58-5.95
						c-0.17-0.32-0.39-0.61-0.62-0.88c-0.24,0.31-0.48,0.62-0.7,0.94C547.09,388.46,544.35,394.55,542.74,400.96z"/>
				</g>
				<g>
					<path class="st4" d="M539.01,380.62c0.16,0.07-0.1,1.43-1.22,3.62c-1.11,2.17-3.23,5.12-6.68,7.72
						c-1.72,1.3-3.78,2.48-6.14,3.36c-1.17,0.45-2.42,0.81-3.82,1.02c-1.36,0.19-3.04,0.21-4.66-0.78c-1.65-1.07-2.38-3.09-2.6-4.73
						c-0.25-1.7-0.17-3.33-0.03-4.94c0.33-3.23,0.81-6.28,1.1-9.55c1.29-12.98,0.99-24.85,0.39-33.4
						c-0.61-8.56-1.35-13.84-0.91-13.94c0.37-0.08,1.86,5.07,3.02,13.69c1.15,8.6,1.8,20.72,0.48,33.97
						c-0.29,3.29-0.82,6.59-1.16,9.53c-0.33,2.89-0.19,5.97,1.19,6.87c0.7,0.47,1.79,0.62,2.91,0.48c1.11-0.13,2.26-0.39,3.34-0.75
						c2.17-0.68,4.1-1.65,5.75-2.73c3.31-2.16,5.53-4.66,6.87-6.52C538.18,381.69,538.8,380.51,539.01,380.62z"/>
				</g>
				<path class="st4" d="M538.95,362.49c0,0.64-0.49,1.16-1.08,1.16c-0.6,0-1.08-0.52-1.08-1.16c0-0.64,0.49-1.16,1.08-1.16
					C538.46,361.34,538.95,361.85,538.95,362.49z M545.78,357.3c-1.13,0-2.04,0.98-2.04,2.18c0,1.2,0.91,2.18,2.04,2.18
					c1.13,0,2.04-0.98,2.04-2.18C547.82,358.27,546.9,357.3,545.78,357.3z M542.12,366.6c-0.89,0-1.61,0.77-1.61,1.72
					s0.72,1.72,1.61,1.72c0.89,0,1.61-0.77,1.61-1.72S543.01,366.6,542.12,366.6z M553.19,362.49c-0.69,0-1.24,0.6-1.24,1.33
					c0,0.73,0.56,1.33,1.24,1.33c0.69,0,1.24-0.6,1.24-1.33C554.43,363.09,553.88,362.49,553.19,362.49z M561.4,357.3
					c-0.56,0-1.02,0.49-1.02,1.09c0,0.6,0.46,1.09,1.02,1.09c0.56,0,1.02-0.49,1.02-1.09C562.42,357.78,561.96,357.3,561.4,357.3z
					 M508.92,371.73c-0.7,0-1.27,0.61-1.27,1.36c0,0.75,0.57,1.36,1.27,1.36c0.7,0,1.27-0.61,1.27-1.36
					C510.19,372.34,509.62,371.73,508.92,371.73z M500.62,375.55c-0.85,0-1.53,0.73-1.53,1.64c0,0.91,0.69,1.64,1.53,1.64
					s1.53-0.73,1.53-1.64C502.15,376.28,501.46,375.55,500.62,375.55z M508.58,378.83c-0.76,0-1.37,0.66-1.37,1.47
					c0,0.81,0.61,1.47,1.37,1.47s1.37-0.66,1.37-1.47C509.95,379.48,509.34,378.83,508.58,378.83z M497.83,382.49
					c-1.13,0-2.05,0.98-2.05,2.19s0.92,2.19,2.05,2.19c1.13,0,2.05-0.98,2.05-2.19S498.96,382.49,497.83,382.49z"/>
				<polygon class="st16" points="542.74,526.5 562.2,588.33 516.47,581.61 569.68,602.92 575.27,589.91 560.38,547.18 				"/>
				<path class="st16" d="M697.44,597.87c13.29-10.65,26.99-21.52,39.84-33.32l-35.99-48.26l-31.64-33.36l47.55,81.79l-70.46,68.32
					l-54.43,1.82l10.81,28.51C636.91,645.86,667.4,621.94,697.44,597.87z"/>
			</g>
			<path class="st0" d="M70.64,566.32c64.33,70.12,155.74,103.53,245.56,124.26c-62.14-2.89-123.73-18.74-180.28-46.4
				c-26.76-13.09-52.79-29.11-73.11-51.85s-34.55-52.96-34.25-84.4C40.35,529.09,54.51,548.74,70.64,566.32z"/>
			<path class="st0" d="M384.65,592.54c-11.14-103.79-29.92-206.64-56.1-307.29c26.39,44.83,41.47,96.47,49.12,148.8
				C385.32,486.37,385.77,539.59,384.65,592.54z"/>
			<path class="st2" d="M696.03,615.71c-30.59,23.85-62.74,45.84-97.71,61.36s-73.02,24.4-110.78,21.33
				c111.35-32.41,213.2-101.13,288.45-194.62c-3.21,23.89-14.53,45.91-29.17,64.28C732.18,586.43,714.27,601.49,696.03,615.71z"/>
		</g>
		<g>
			<path class="st16" d="M389.58,105.13c43.25-6.28,87.4-5.39,130.4,2.63c2.32,30.54,2.84,62.23-1.89,92.44
				c-40.86,7.81-87.45,8.57-128.12-0.3C384.54,168.79,384.98,136.39,389.58,105.13z"/>
			<path class="st16" d="M486.05,189.67c10.11,19.37,26.03,35.21,44.82,44.62c-22.32-5.03-42.37-20.62-53.11-42.12
				C479.99,191.13,483.83,190.71,486.05,189.67z"/>
			<path class="st3" d="M252.28,273.81c13.99-7,26.38-17.57,35.97-30.5c-7.87-0.95-15.63-2.14-23.18-3.59
				c-4.73-30.22-4.22-61.91-1.9-92.44c43-8.01,87.15-8.9,130.4-2.63c4.59,31.26,5.04,63.66-0.39,94.77
				c-30.21,6.59-63.7,7.86-95.67,4.87C286.18,259.21,269.95,269.83,252.28,273.81z"/>
		</g>
	</g>
	<g>
		<path class="st10" d="M308.66,175.47c0-0.43-0.08,1.32-0.25,5.25c-0.17,3.93-0.25,8.06-0.25,12.41c0,3.27,0.02,6.34,0.06,9.22
			c0.04,2.88,0.06,4.13,0.06,3.76c0,1.99-0.75,2.98-2.24,2.98c-0.85,0-1.44-0.28-1.76-0.84c-0.22-0.39-0.36-1.04-0.42-1.97
			c-0.06-0.93-0.08-2.47-0.08-4.63v-8.86c-1.69,0.03-4.02,0.04-6.99,0.04c-5.5,0-9.77-0.07-12.81-0.2
			c-0.15,3.15-0.23,6.14-0.23,8.98c0,0.85,0.01,1.77,0.02,2.75c0.01,0.98,0.02,1.52,0.02,1.63c0,1.36-0.15,2.31-0.46,2.86
			c-0.33,0.6-0.93,0.9-1.8,0.9c-0.84,0-1.42-0.29-1.76-0.86c-0.32-0.53-0.48-1.43-0.48-2.7c0-2.6,0.09-7.24,0.27-13.92
			c-0.95-0.44-1.42-1-1.42-1.68c0-0.93,0.52-1.52,1.55-1.76c0.22-3.73,0.54-7.98,0.94-12.74c0.28-1.69,1.11-2.54,2.49-2.54
			c1.37,0,2.05,0.8,2.05,2.4c0,0.13-0.1,1.4-0.31,3.8c-0.27,2.99-0.49,6-0.67,9.04c1.56,0.05,4.02,0.08,7.37,0.08
			c4.25,0,8.34-0.11,12.26-0.34c0.11-6.98,0.24-11.28,0.38-12.9c0.17-1.91,0.94-2.86,2.32-2.86
			C307.95,172.77,308.66,173.67,308.66,175.47z"/>
		<path class="st10" d="M332.92,193.29c0,3.65-0.56,7.47-1.67,11.46c-0.56,2-1.39,3-2.49,3c-1.13,0-1.69-0.61-1.69-1.84
			c0-0.28,0.01-0.49,0.04-0.62c-1.42,0.73-2.9,1.1-4.42,1.1c-2.69,0-4.8-0.73-6.31-2.18c-1.51-1.45-2.27-3.49-2.27-6.1
			c0-2.65,0.82-4.75,2.45-6.31c1.63-1.55,3.8-2.33,6.51-2.33c2.36,0,4.35,0.75,5.96,2.26c-0.27-5.27-2.31-7.9-6.13-7.9
			c-0.85,0-1.76,0.24-2.73,0.73c-0.97,0.49-1.6,0.73-1.89,0.73c-0.47,0-0.9-0.19-1.28-0.56c-0.38-0.37-0.56-0.8-0.56-1.28
			c0-0.8,0.61-1.54,1.82-2.22c1.3-0.73,2.85-1.1,4.65-1.1C329.58,180.13,332.92,184.52,332.92,193.29z M328.67,197.99
			c0-3.39-1.67-5.08-5-5.08c-3.66,0-5.48,1.68-5.48,5.04c0,3.39,1.81,5.08,5.44,5.08c1.58,0,2.81-0.44,3.7-1.33
			C328.22,200.81,328.67,199.57,328.67,197.99z"/>
		<path class="st10" d="M344.11,205.16c0,0.91-0.06,1.53-0.19,1.86c-0.24,0.59-0.76,0.88-1.56,0.88c-1.32,0-2.1-1.03-2.33-3.08
			c-0.4-3.47-0.6-8.21-0.6-14.24c0-6.73,0.1-10.87,0.29-12.42c0.22-1.69,0.92-2.54,2.1-2.54c1.39,0,2.08,0.81,2.08,2.42
			c0,0.4-0.08,1.99-0.23,4.77c-0.15,2.78-0.23,5.34-0.23,7.69c0,2.05,0.11,4.71,0.33,7.97C344,201.73,344.11,203.96,344.11,205.16z"
			/>
		<path class="st10" d="M355.6,205.16c0,0.91-0.06,1.53-0.19,1.86c-0.24,0.59-0.76,0.88-1.56,0.88c-1.32,0-2.1-1.03-2.33-3.08
			c-0.4-3.47-0.6-8.21-0.6-14.24c0-6.73,0.1-10.87,0.29-12.42c0.22-1.69,0.92-2.54,2.1-2.54c1.39,0,2.08,0.81,2.08,2.42
			c0,0.4-0.08,1.99-0.23,4.77c-0.15,2.78-0.23,5.34-0.23,7.69c0,2.05,0.11,4.71,0.33,7.97C355.49,201.73,355.6,203.96,355.6,205.16z
			"/>
		<path class="st10" d="M383.87,190.87c0,3.92-1.2,7.04-3.6,9.37c-2.4,2.33-5.6,3.49-9.61,3.49c-3.32,0-5.92-1.08-7.81-3.25
			c-1.88-2.17-2.82-5.17-2.82-9.03c0-4.05,1.14-7.2,3.41-9.44c2.23-2.2,5.33-3.3,9.29-3.3c3.32,0,6.01,1.11,8.06,3.34
			S383.87,187.22,383.87,190.87z M379.71,190.91c0-2.68-0.68-4.78-2.04-6.29c-1.36-1.51-3.22-2.27-5.58-2.27
			c-5.26,0-7.89,3.02-7.89,9.06c0,2.79,0.57,4.93,1.72,6.43c1.14,1.5,2.78,2.25,4.92,2.25c2.76,0,4.93-0.81,6.51-2.42
			C378.92,196.05,379.71,193.8,379.71,190.91z"/>
	</g>
	<g>
		<path class="st10" d="M433.25,132.94c0-0.43-0.08,1.32-0.25,5.25c-0.17,3.93-0.25,8.06-0.25,12.41c0,3.27,0.02,6.34,0.06,9.22
			c0.04,2.88,0.06,4.13,0.06,3.76c0,1.99-0.75,2.98-2.24,2.98c-0.85,0-1.44-0.28-1.76-0.84c-0.22-0.39-0.36-1.04-0.42-1.97
			c-0.06-0.93-0.08-2.47-0.08-4.63v-8.86c-1.69,0.03-4.02,0.04-6.99,0.04c-5.5,0-9.77-0.07-12.81-0.2
			c-0.15,3.15-0.23,6.14-0.23,8.98c0,0.85,0.01,1.77,0.02,2.75c0.01,0.98,0.02,1.52,0.02,1.63c0,1.36-0.15,2.31-0.46,2.86
			c-0.33,0.6-0.93,0.9-1.8,0.9c-0.84,0-1.42-0.29-1.76-0.86c-0.32-0.53-0.48-1.43-0.48-2.7c0-2.6,0.09-7.24,0.27-13.92
			c-0.95-0.44-1.42-1-1.42-1.68c0-0.93,0.52-1.52,1.55-1.76c0.22-3.73,0.54-7.98,0.94-12.74c0.28-1.69,1.11-2.54,2.49-2.54
			c1.37,0,2.05,0.8,2.05,2.4c0,0.13-0.11,1.4-0.31,3.8c-0.26,2.99-0.49,6-0.67,9.04c1.56,0.05,4.02,0.08,7.37,0.08
			c4.25,0,8.34-0.11,12.26-0.34c0.11-6.98,0.24-11.28,0.38-12.9c0.17-1.91,0.94-2.86,2.32-2.86
			C432.54,130.25,433.25,131.15,433.25,132.94z"/>
		<path class="st10" d="M457.51,150.76c0,3.65-0.56,7.47-1.67,11.46c-0.56,2-1.39,3-2.49,3c-1.13,0-1.69-0.61-1.69-1.84
			c0-0.28,0.01-0.49,0.04-0.62c-1.42,0.73-2.89,1.1-4.42,1.1c-2.69,0-4.79-0.73-6.31-2.18s-2.27-3.49-2.27-6.1
			c0-2.65,0.82-4.75,2.45-6.31c1.63-1.55,3.8-2.33,6.51-2.33c2.36,0,4.35,0.75,5.96,2.26c-0.27-5.27-2.31-7.9-6.13-7.9
			c-0.85,0-1.76,0.24-2.73,0.73c-0.97,0.49-1.6,0.73-1.89,0.73c-0.47,0-0.9-0.19-1.28-0.56c-0.38-0.37-0.56-0.8-0.56-1.28
			c0-0.8,0.61-1.54,1.82-2.22c1.3-0.73,2.85-1.1,4.65-1.1C454.17,137.6,457.51,141.99,457.51,150.76z M453.26,155.46
			c0-3.39-1.67-5.08-5-5.08c-3.66,0-5.48,1.68-5.48,5.04c0,3.39,1.81,5.08,5.44,5.08c1.58,0,2.81-0.44,3.7-1.33
			C452.81,158.28,453.26,157.04,453.26,155.46z"/>
		<path class="st10" d="M468.7,162.64c0,0.91-0.06,1.53-0.19,1.86c-0.24,0.59-0.76,0.88-1.56,0.88c-1.32,0-2.1-1.03-2.33-3.08
			c-0.4-3.47-0.6-8.21-0.6-14.24c0-6.73,0.1-10.87,0.29-12.42c0.22-1.69,0.92-2.54,2.1-2.54c1.39,0,2.08,0.81,2.08,2.42
			c0,0.4-0.08,1.99-0.23,4.77c-0.15,2.78-0.23,5.34-0.23,7.69c0,2.05,0.11,4.71,0.33,7.97C468.59,159.21,468.7,161.44,468.7,162.64z
			"/>
		<path class="st10" d="M480.19,162.64c0,0.91-0.06,1.53-0.19,1.86c-0.24,0.59-0.76,0.88-1.56,0.88c-1.32,0-2.1-1.03-2.33-3.08
			c-0.4-3.47-0.6-8.21-0.6-14.24c0-6.73,0.1-10.87,0.29-12.42c0.22-1.69,0.92-2.54,2.1-2.54c1.39,0,2.08,0.81,2.08,2.42
			c0,0.4-0.08,1.99-0.23,4.77c-0.15,2.78-0.23,5.34-0.23,7.69c0,2.05,0.11,4.71,0.34,7.97
			C480.08,159.21,480.19,161.44,480.19,162.64z"/>
		<path class="st10" d="M508.46,148.34c0,3.92-1.2,7.04-3.6,9.37c-2.4,2.33-5.6,3.49-9.61,3.49c-3.32,0-5.92-1.08-7.8-3.25
			c-1.88-2.17-2.83-5.17-2.83-9.03c0-4.05,1.14-7.2,3.41-9.44c2.23-2.2,5.33-3.3,9.29-3.3c3.32,0,6.01,1.11,8.06,3.34
			S508.46,144.69,508.46,148.34z M504.3,148.38c0-2.68-0.68-4.78-2.04-6.29c-1.36-1.51-3.22-2.27-5.58-2.27
			c-5.26,0-7.89,3.02-7.89,9.06c0,2.79,0.57,4.93,1.72,6.43c1.14,1.5,2.78,2.25,4.92,2.25c2.76,0,4.93-0.81,6.51-2.42
			C503.51,153.52,504.3,151.27,504.3,148.38z"/>
	</g>
</g>
<g id="Designed_by_Freepik">
</g>
</svg>
