<?xml version="1.0" encoding="utf-8"?>
<!-- Generator: Adobe Illustrator 24.1.3, SVG Export Plug-In . SVG Version: 6.00 Build 0)  -->
<svg version="1.1" id="Layer_1" xmlns="http://www.w3.org/2000/svg" xmlns:xlink="http://www.w3.org/1999/xlink" x="0px" y="0px"
	 viewBox="0 0 1366 420" style="enable-background:new 0 0 1366 420;" xml:space="preserve">
<style type="text/css">
	.st0{clip-path:url(#SVGID_2_);fill:#F4F4F4;}
	.st1{clip-path:url(#SVGID_2_);fill:#FFFFFF;}
	.st2{clip-path:url(#SVGID_2_);fill:#F6F6F6;}
	.st3{clip-path:url(#SVGID_2_);}
	.st4{fill:#FFFFFF;}
</style>
<g>
	<defs>
		<rect id="SVGID_1_" y="-83" width="1366" height="676"/>
	</defs>
	<clipPath id="SVGID_2_">
		<use xlink:href="#SVGID_1_"  style="overflow:visible;"/>
	</clipPath>
	<ellipse class="st0" cx="1069.61" cy="86.3" rx="91.64" ry="68.03"/>
	<path class="st0" d="M1412.19,206.53c0,0-39.7-72.73-146.36-62.73c-106.66,10-115.4,70.45-265.11,50.56s58.08-20.29,144.79,41.41
		c86.71,61.7,308.7,104.6,308.7,104.6L1412.19,206.53z"/>
	<path class="st0" d="M0,158.57c0,0,113.58-75.07,270.21-57.5S478.9,230.91,551.13,249.02s136.17-76.42,194.45-92.64
		c58.28-16.22,258.63-25.69,322.38,14.87s269.56,190.63,269.56,190.63l74.67,5.41v9.21c0,0-72.85,23.24-193.06-17.32
		S986,299.69,884,364.59s-244.67,69.06-426.19-16.22S0,235.77,0,235.77V158.57z"/>
	<path class="st1" d="M-61.98,395.12c0,0,54.64-81.96,185.77-73.43c131.13,8.54,152.98,78.36,303.24,59.67
		c150.25-18.69,249.79-191.02,295.27-210.51s108.34,42.66,147.3,41.75c38.96-0.91,105.67-20.28,105.67-20.28
		s73.47,12.45,189.84,88.77c116.36,76.32,247.09,43.83,247.09,43.83v-64.47c0,0-69.21,58.16-194.88-21.61S996.92,82.02,882.18,76.61
		S675.62,182.06,487.13,235.87c-188.5,53.81-239.16-57.89-374.27-61.79c-135.11-3.89-174.84,56.49-174.84,56.49V395.12z"/>
	<path class="st2" d="M710.64,178.08L710.64,178.08c4.21-3.24,8.1-5.7,11.65-7.22c45.48-19.49,108.34,42.66,147.3,41.75
		c38.96-0.91,105.67-20.28,105.67-20.28s73.47,12.45,189.84,88.77s247.09,43.83,247.09,43.83v-64.47c0,0-69.21,58.16-194.88-21.61
		c-91.07-29.74-131.14-67.6-269.32-112.92S710.64,178.08,710.64,178.08z"/>
	<path class="st2" d="M112.86,174.08c-135.11-3.89-174.84,56.49-174.84,56.49v164.55c0,0,51.36-77.04,173.99-73.96
		c30.45-5.65,64.94-8,103.76-5.25c209.66,14.87,401.61-130.9,401.61-130.9l-82.73,35.45c-15.16,5.49-30.97,10.67-47.54,15.4
		C298.63,289.67,247.97,177.97,112.86,174.08z"/>
	<path class="st2" d="M1167.72,267.13c-66.64-38.32-156.83-97.23-211.58-96.52c-27.44,0.36-45.96,9.1-65.75,18.04
		c-4.61,1.97-19.99,7.96-33.71,6.49c-17.22-1.85-28.5-11.4-33.12-16.12c-23.36-26.24-47.43-53.08-77.38-53.08
		c-49.02,0-135.49,80.06-196.37,120.18c-0.44,0.28-10.19,6.39-14.67,8.99c-1.97,1.08-3.97,2.15-5.95,3.23
		c-6.53,3.44-15.61,8.06-17.43,8.99c-25.71,13.01-75.11,36.75-151.69,28.97c-88.64-9.01-216.83-160.68-295.06-159.54
		c-78.22,1.15-220.99,127.09-220.99,127.09l114.74,35.79c0,0,88.03-70.04,193.67-62.83c75.32,5.14,109.75,86.44,201.56,82.02
		c53.38-2.57,107.64-25.18,158.44-51.57l0,0c0,0,24.66-12.02,38.69-20.93c58.44-32.25,110.87-61.46,147.7-68.11
		c51-9.21,101.25,99.49,164.75,99.53c57.17,0.03,72.02-71.79,128.99-73.05c61.65-1.37,166.27,75.43,181.02,85.28
		c60.71,40.56,154.21,107.26,238.59,83.82v-75.94C1330.99,322.22,1236.1,306.44,1167.72,267.13z"/>
	<g class="st3">
		<polygon class="st4" points="215.78,260.06 215.78,260.06 215.77,260.06 		"/>
		<path class="st4" d="M152.43,236.79c16.8,1.15,31.56,6.09,45.37,13.01c-26.7-14.68-78.28-40.82-120.67-49.16
			C21.36,189.68-65.78,215.7-114.42,276.8l73.19,22.83C-41.23,299.62,46.8,229.58,152.43,236.79z"/>
	</g>
	<g class="st3">
		<path class="st4" d="M1144.25,253.43c-63.15-37.2-139.56-83.45-188.12-82.82c-27.44,0.36-45.96,9.1-65.75,18.04
			c-4.61,1.97-19.99,7.96-33.71,6.49c-10.52-1.13-18.81-5.13-24.73-9.16c25.38,23.42,65,54.16,97.96,53.96
			c17.41-17.51,35.11-34.63,62.67-35.25c61.65-1.37,166.27,75.43,181.02,85.28c23.06,15.41,50.86,34.59,81.1,51.17
			c0.04,0.02,0.1,0.05,0.1,0.05S1184.44,297.4,1144.25,253.43z"/>
		<path class="st4" d="M806.16,159.99c0.01,0.01,3.18,3.62,8.69,9.3C811.97,166.13,809.08,163.02,806.16,159.99z"/>
	</g>
	<ellipse class="st1" cx="239.12" cy="368.7" rx="62.96" ry="46.73"/>
	<ellipse class="st1" cx="447.39" cy="128.96" rx="34.17" ry="25.36"/>
</g>
</svg>
