<?xml version="1.0" encoding="utf-8"?>
<!-- Generator: Adobe Illustrator 24.1.3, SVG Export Plug-In . SVG Version: 6.00 Build 0)  -->
<svg version="1.1" id="Layer_1" xmlns="http://www.w3.org/2000/svg" xmlns:xlink="http://www.w3.org/1999/xlink" x="0px" y="0px"
	 viewBox="0 0 1366 300" style="enable-background:new 0 0 1366 300;" xml:space="preserve">
<style type="text/css">
	.st0{opacity:0.75;clip-path:url(#SVGID_2_);fill:#EDEDED;}
</style>
<g>
	<defs>
		<rect id="SVGID_1_" x="0.53" y="-95.25" width="1365.92" height="531.5"/>
	</defs>
	<clipPath id="SVGID_2_">
		<use xlink:href="#SVGID_1_"  style="overflow:visible;"/>
	</clipPath>
	<path class="st0" d="M1366.45,249.13c0,0-111.53-1.01-182.92-42.93c-71.39-41.92-118.75-52.55-169.74-42.98
		c-50.99,9.57-60.1,27.64-138.41,27.64s-70.36-51.39-146.15-61.65c-51.91-7.03-82.35,1.69-116.1,15.94
		c-32.48,13.71-56.5-23.91-103.81-22.32c-75.58,2.54-84.69,46.24-183.03,36.67c-68.88-6.7-86.03-56.91-142.97-96.2
		C93.46,1.29-94.45,14.4-94.45,14.4v137.13c0,0,93.82-32.95,217.66,0S241.59,247.2,336.29,264.2s150.75-51.25,250.36-57.12
		c131.19-7.72,175.81,34.8,275.98,35.86s110.33-35.65,197.22-31.64C1146.74,215.31,1209.27,275.9,1366.45,249.13z"/>
	<path class="st0" d="M387.29,224.34c-69.7-28.17-129.37-93.5-131.57-95.92c-22.19-19.08-41.4-43.72-72.41-65.12
		C93.46,1.29-94.45,14.4-94.45,14.4v137.13c0,0,93.82-32.95,217.66,0S241.59,247.2,336.29,264.2c53.52,9.61,94.69-8.01,138.36-26.21
		C447.74,238.84,416.37,236.09,387.29,224.34z"/>
	<path class="st0" d="M1183.53,206.2c-71.39-41.92-118.75-52.55-169.74-42.98c-50.99,9.57-60.1,27.64-138.41,27.64
		c-31.37,0-48.89-8.25-63.51-18.79c25.2,19.73,61.29,41.5,129.17,61.7c37.91-10.26,61.91-25.09,118.81-22.47
		c86.89,4,149.42,64.6,306.61,37.82C1366.45,249.13,1254.93,248.12,1183.53,206.2z"/>
</g>
</svg>
